<?xml version="1.0"?>
<!DOCTYPE svg PUBLIC "-//W3C//DTD SVG 20010904//EN" "http://www.w3.org/TR/2001/REC-SVG-20010904/DTD/svg10.dtd">
<svg version="1.0" xmlns="http://www.w3.org/2000/svg"
    width="512.000000pt" height="512.000000pt" viewBox="0 0 512.000000 512.000000"
    preserveAspectRatio="xMidYMid meet">
    <metadata> Created by potrace 1.14, written by Peter Selinger 2001-2017 </metadata>
    <g>
        <path transform="translate(0.000000,512.000000) scale(0.100000,-0.100000)"
        fill="#FFFFFF" stroke="none"
            d="M2240 5095 c-47 -7 -69 -13 -50 -13 19 0 76 6 125 13 50 7 72 12 50
12 -22 0 -78 -5 -125 -12z M2770 5101 c50 -12 149 -21 125 -12 -11 5 -51 11
-90 14 -47 4 -59 3 -35 -2z M2928 5083 c6 -2 18 -2 25 0 6 3 1 5 -13 5 -14 0
-19 -2 -12 -5z M2100 5070 c-18 -12 -2 -12 25 0 13 6 15 9 5 9 -8 0 -22 -4
-30 -9z M2995 5070 c27 -12 43 -12 25 0 -8 5 -22 9 -30 9 -10 0 -8 -3 5 -9z
M2012 5058 c-24 -5 -42 -12 -39 -14 5 -5 107 16 107 22 0 6 -17 4 -68 -8z
M3050 5062 c8 -5 35 -12 60 -15 54 -7 24 7 -35 17 -25 4 -34 3 -25 -2z M1910
5030 c-18 -12 -2 -12 25 0 13 6 15 9 5 9 -8 0 -22 -4 -30 -9z M3185 5030 c11
-5 27 -9 35 -9 9 0 8 4 -5 9 -11 5 -27 9 -35 9 -9 0 -8 -4 5 -9z M1873 5013
c4 -3 10 -3 14 0 3 4 0 7 -7 7 -7 0 -10 -3 -7 -7z M1828 5003 c7 -3 16 -2 19
1 4 3 -2 6 -13 5 -11 0 -14 -3 -6 -6z M3309 4994 c19 -8 36 -12 39 -9 5 5 -43
25 -61 25 -7 -1 3 -7 22 -16z M1745 4979 c-27 -10 -37 -17 -21 -14 31 7 97 33
81 33 -5 0 -32 -8 -60 -19z M3375 4970 c11 -5 29 -8 40 -8 16 0 15 2 -5 8 -34
11 -60 11 -35 0z M1670 4955 c0 -3 2 -5 5 -5 3 0 5 2 5 5 0 3 -2 5 -5 5 -3 0
-5 -2 -5 -5z M3440 4955 c0 -3 2 -5 5 -5 3 0 5 2 5 5 0 3 -2 5 -5 5 -3 0 -5
-2 -5 -5z M1586 4924 c-56 -22 -107 -55 -61 -38 11 4 25 11 31 15 6 5 19 10
30 12 21 3 85 36 69 36 -5 -1 -37 -12 -69 -25z M3470 4940 c8 -5 20 -10 25
-10 6 0 3 5 -5 10 -8 5 -19 10 -25 10 -5 0 -3 -5 5 -10z M3510 4922 c0 -5 6
-9 13 -9 6 0 29 -8 50 -17 43 -19 50 -13 10 7 -41 21 -73 30 -73 19z M1456
4864 c-9 -8 -16 -13 -16 -9 0 3 -14 -2 -31 -10 -17 -9 -28 -19 -25 -22 3 -3
12 -1 20 6 8 6 23 14 35 16 22 4 60 35 42 35 -5 0 -17 -7 -25 -16z M3630 4875
c0 -3 2 -5 5 -5 3 0 5 2 5 5 0 3 -2 5 -5 5 -3 0 -5 -2 -5 -5z M3650 4861 c0
-5 7 -11 14 -14 10 -4 13 -1 9 9 -6 15 -23 19 -23 5z M3706 4835 c10 -8 24
-14 29 -14 6 0 1 6 -9 14 -11 8 -24 15 -30 15 -5 0 -1 -7 10 -15z M1323 4798
c-13 -6 -23 -15 -23 -21 0 -5 5 -5 13 1 7 6 24 16 38 21 13 5 17 10 9 10 -8 0
-25 -5 -37 -11z M3753 4803 c4 -3 10 -3 14 0 3 4 0 7 -7 7 -7 0 -10 -3 -7 -7z
M3785 4792 c17 -16 105 -64 105 -58 0 3 -17 16 -37 29 -42 26 -84 44 -68 29z
M1260 4760 c-14 -11 -20 -20 -13 -20 11 0 43 26 43 36 0 7 -4 5 -30 -16z
M1181 4710 c-31 -26 -17 -26 16 0 14 11 22 20 17 20 -5 -1 -20 -10 -33 -20z
M3900 4726 c0 -2 7 -7 16 -10 8 -3 12 -2 9 4 -6 10 -25 14 -25 6z M3943 4693
c4 -3 10 -3 14 0 3 4 0 7 -7 7 -7 0 -10 -3 -7 -7z M1105 4658 c-21 -16 -42
-32 -45 -35 -9 -11 64 31 79 45 26 25 6 19 -34 -10z M3970 4686 c0 -4 7 -14
15 -22 8 -9 15 -11 15 -6 0 5 -7 15 -15 22 -8 7 -15 9 -15 6z M4027 4639 c7
-7 15 -10 18 -7 3 3 -2 9 -12 12 -14 6 -15 5 -6 -5z M1040 4610 c0 -7 3 -10 7
-7 3 4 3 10 0 14 -4 3 -7 0 -7 -7z M4070 4605 c0 -3 2 -5 5 -5 3 0 5 2 5 5 0
3 -2 5 -5 5 -3 0 -5 -2 -5 -5z M1014 4588 c-4 -7 -3 -8 4 -4 12 7 16 16 8 16
-3 0 -8 -5 -12 -12z M4090 4597 c0 -3 12 -12 26 -22 15 -9 23 -12 20 -6 -7 11
-46 35 -46 28z M980 4565 c0 -3 2 -5 5 -5 3 0 5 2 5 5 0 3 -2 5 -5 5 -3 0 -5
-2 -5 -5z M955 4549 c-4 -6 -5 -12 -2 -15 2 -3 7 2 10 11 7 17 1 20 -8 4z
M3420 4551 c-44 -13 -90 -35 -90 -43 0 -4 -5 -8 -11 -8 -15 0 -136 -82 -174
-117 -16 -16 -50 -44 -75 -63 -24 -19 -58 -47 -75 -62 -132 -116 -159 -138
-176 -143 -10 -4 -19 -11 -19 -16 0 -5 -46 -9 -102 -10 -102 0 -279 -12 -370
-25 -36 -5 -51 -3 -63 10 -9 9 -25 16 -36 16 -10 0 -19 5 -19 10 0 6 -7 10
-16 10 -9 0 -29 12 -45 28 -34 33 -57 52 -63 52 -2 0 -33 30 -68 66 -57 60
-158 144 -173 144 -3 0 -18 11 -33 25 -15 14 -35 25 -44 25 -10 0 -18 4 -18 9
0 5 -8 11 -17 15 -10 3 -34 15 -53 27 -48 30 -148 32 -175 5 -23 -22 -45 -63
-45 -81 0 -7 -7 -26 -15 -41 -8 -16 -15 -43 -15 -61 0 -17 -5 -44 -11 -60 -15
-41 -14 -745 2 -774 15 -29 -3 -249 -30 -367 -14 -58 -9 -151 9 -162 13 -8 12
-26 -9 -220 -6 -58 -15 -193 -19 -300 -7 -187 -8 -195 -27 -192 -87 13 -119
13 -141 2 -38 -21 -11 -30 89 -30 48 0 87 -3 88 -7 5 -57 12 -90 20 -97 5 -6
9 -17 9 -25 0 -8 7 -22 14 -30 23 -26 4 -42 -58 -48 -31 -3 -59 -10 -62 -14
-3 -5 -12 -9 -21 -9 -8 0 -29 -6 -46 -14 -18 -8 -40 -16 -50 -18 -10 -2 -19
-7 -20 -13 -3 -17 41 -17 65 -1 12 9 37 16 55 16 17 0 35 5 38 10 3 6 23 10
43 10 21 0 47 7 59 15 20 14 24 12 78 -58 50 -63 109 -118 163 -152 9 -5 22
-14 29 -20 52 -42 79 -57 118 -70 13 -4 12 -9 -2 -37 -30 -60 -33 -68 -33 -82
0 -7 -7 -19 -15 -26 -8 -7 -15 -25 -15 -41 0 -16 -4 -29 -10 -29 -5 0 -10 -9
-10 -21 0 -11 -7 -27 -15 -35 -8 -9 -15 -24 -15 -34 0 -10 -4 -22 -10 -25 -5
-3 -10 -14 -10 -24 0 -10 -7 -32 -15 -47 -8 -16 -15 -41 -15 -56 0 -32 31 -97
46 -98 6 0 18 -8 26 -17 16 -19 15 -34 -11 -178 -14 -78 -15 -75 14 -75 21 0
25 5 25 29 0 17 4 33 10 36 5 3 10 23 10 44 0 30 7 45 37 74 40 41 54 45 77
22 8 -8 21 -15 29 -15 9 0 17 -3 19 -8 5 -12 254 -132 326 -157 65 -22 84 -4
139 138 9 23 20 46 25 52 4 5 8 15 8 23 0 58 57 103 84 66 11 -14 21 -14 109
0 128 21 166 21 174 -1 4 -10 17 -32 30 -49 13 -17 23 -33 23 -36 0 -7 60 -98
89 -133 22 -29 71 -34 91 -10 7 8 17 15 22 15 5 0 14 5 21 10 16 14 96 73 116
85 8 6 20 15 27 20 6 6 22 17 34 25 12 8 28 21 36 28 7 6 15 12 19 12 4 0 13
6 20 12 33 30 45 38 54 38 5 0 11 3 13 8 2 4 23 23 48 42 25 19 47 37 50 40 3
4 20 15 38 25 17 11 32 22 32 26 0 4 8 9 18 13 17 5 45 22 69 41 30 24 41 31
73 49 19 11 44 29 56 42 19 20 23 21 54 8 18 -8 48 -14 66 -14 19 0 42 -4 52
-9 9 -5 46 -22 81 -39 47 -23 71 -42 92 -74 l29 -43 0 60 0 60 -75 79 c-79 83
-84 91 -60 100 21 8 21 119 0 140 -8 8 -15 17 -15 19 0 2 -28 34 -62 70 -35
36 -94 100 -133 143 -38 43 -80 88 -92 101 -23 24 -22 44 4 75 15 17 65 16
108 -2 11 -5 41 -11 67 -15 26 -3 50 -10 53 -16 4 -5 22 -9 41 -9 19 0 34 -4
34 -10 0 -5 14 -10 30 -10 17 0 30 5 30 10 0 6 -13 10 -30 10 -20 0 -30 5 -30
15 0 10 -11 15 -35 15 -19 0 -35 5 -35 10 0 6 -11 10 -25 10 -14 0 -42 7 -62
15 -19 8 -53 15 -74 15 -42 0 -51 16 -24 44 8 8 15 21 15 28 0 8 4 18 9 24 5
5 11 25 13 44 3 32 7 36 43 43 35 7 181 23 240 26 14 1 16 4 8 12 -10 10 -228
9 -263 -1 -11 -4 -16 10 -22 63 -4 38 -13 77 -18 87 -6 10 -10 29 -10 41 0 23
-5 43 -34 135 -9 29 -16 61 -16 72 0 12 -4 24 -10 27 -5 3 -10 16 -10 28 0 22
-25 108 -41 139 -5 10 -9 50 -9 89 0 67 -22 183 -41 221 -5 10 -9 29 -9 43 0
14 -4 25 -9 25 -5 0 -5 16 0 38 5 20 9 71 9 112 0 41 5 95 11 120 15 63 15
474 0 600 -12 100 -31 186 -53 240 -21 51 -89 79 -148 61z m98 -58 c47 -67 64
-183 69 -468 3 -154 0 -269 -8 -320 -6 -44 -14 -98 -16 -120 -10 -78 -75 -114
-123 -68 -13 13 -13 16 1 26 8 7 18 19 22 27 4 8 11 22 16 30 17 27 41 88 41
102 0 8 4 18 9 24 23 24 42 541 20 555 -9 5 -12 32 -11 83 2 46 -2 76 -8 76
-12 0 -13 -7 -10 -90 1 -36 6 -67 10 -70 12 -7 12 -182 0 -290 -25 -238 -36
-295 -66 -342 -13 -21 -24 -41 -24 -44 0 -14 -52 -54 -68 -53 -9 0 -30 9 -47
20 -16 10 -37 22 -45 26 -8 3 -29 17 -46 30 -17 13 -34 23 -38 23 -12 0 -111
77 -167 131 -22 21 -26 33 -25 72 1 26 5 50 9 53 4 4 7 26 7 49 0 26 6 48 15
55 8 7 15 21 15 31 0 27 190 229 310 329 36 29 70 60 77 68 7 9 23 13 42 10
18 -3 32 0 35 8 7 19 -65 27 -84 9 -9 -8 -20 -15 -25 -15 -4 0 -17 -10 -29
-22 -12 -13 -44 -41 -71 -63 -103 -82 -305 -296 -305 -323 0 -8 -11 -30 -25
-48 -14 -18 -25 -37 -25 -43 0 -6 -4 -11 -10 -11 -5 0 -10 -13 -10 -30 0 -20
-5 -30 -15 -30 -8 0 -15 7 -15 15 0 8 -4 15 -9 15 -5 0 -12 11 -15 25 -4 14
-11 25 -16 25 -6 0 -10 9 -10 20 0 11 -4 20 -10 20 -5 0 -12 11 -16 25 -5 20
0 30 26 52 18 16 40 35 49 43 147 133 327 278 369 296 17 8 32 18 32 22 0 4
18 16 40 26 22 11 40 23 40 28 0 4 9 8 19 8 11 0 23 5 26 10 14 22 73 11 93
-17z m-1881 -29 c3 -8 11 -14 19 -14 8 0 36 -16 63 -35 26 -19 56 -35 65 -35
9 0 16 -7 16 -15 0 -8 7 -15 15 -15 8 0 15 -4 15 -10 0 -5 6 -10 13 -10 7 0
26 -13 42 -30 16 -16 34 -30 40 -30 7 0 23 -12 37 -27 41 -45 106 -103 115
-103 4 0 24 -18 43 -40 19 -22 38 -40 42 -40 5 0 19 -10 33 -22 25 -22 36 -78
15 -78 -6 0 -14 -8 -18 -17 -14 -36 -57 -93 -70 -93 -7 0 -17 12 -22 28 -6 15
-15 35 -20 44 -6 10 -10 23 -10 28 0 53 -377 450 -427 450 -7 0 -13 4 -13 10
0 14 -68 43 -85 36 -22 -8 -18 -26 7 -26 63 0 468 -400 468 -463 0 -8 5 -17
11 -19 7 -2 14 -36 17 -80 4 -74 4 -77 -24 -99 -15 -13 -39 -35 -54 -49 -45
-45 -136 -107 -223 -153 -12 -7 -36 -22 -54 -35 l-31 -22 -35 34 c-19 18 -42
49 -50 67 -35 77 -47 113 -47 146 0 19 -5 43 -10 53 -6 12 -11 118 -12 262 -1
187 -4 248 -14 263 -16 22 -18 61 -5 70 5 3 11 -6 13 -20 2 -14 8 -27 13 -28
14 -3 19 65 5 73 -17 11 -2 50 21 59 29 10 90 1 96 -15z m-140 -744 c5 -30 14
-64 20 -75 6 -11 17 -33 24 -50 8 -16 26 -48 41 -70 14 -22 24 -43 22 -47 -3
-5 -32 -8 -65 -8 l-59 0 -1 43 c-3 74 -4 77 -16 85 -6 4 -11 18 -11 32 0 14
-1 140 -2 281 -2 241 4 361 19 384 3 6 9 -109 12 -255 4 -146 11 -290 16 -320z
m1285 318 c-12 -12 -35 -1 -27 12 3 5 13 6 21 3 10 -4 12 -9 6 -15z m7 -69
c242 -254 299 -304 403 -358 15 -8 30 -22 34 -33 3 -10 11 -18 18 -18 8 0 11
-12 8 -34 -2 -18 1 -37 7 -40 6 -4 11 -15 11 -24 0 -9 7 -30 15 -46 8 -15 15
-46 15 -67 0 -27 4 -39 14 -39 17 0 16 64 -2 97 -7 12 -12 30 -12 41 0 11 -7
33 -15 48 -26 51 -17 68 21 39 10 -8 28 -15 39 -15 11 0 36 -10 55 -23 65 -42
140 -56 140 -26 0 5 4 9 10 9 5 0 7 -7 4 -15 -4 -8 -13 -15 -22 -15 -13 0 -13
-2 1 -17 29 -33 48 -109 41 -165 -6 -48 -5 -51 9 -34 14 20 15 20 21 0 9 -28
11 -103 3 -111 -4 -4 -21 3 -37 15 -16 12 -38 22 -49 22 -11 0 -25 9 -31 20
-6 11 -15 18 -21 15 -5 -4 -9 -2 -9 4 0 5 5 13 10 16 6 3 10 18 9 33 0 26 -1
26 -9 5 -10 -25 -58 -42 -69 -25 -9 15 -77 43 -85 35 -14 -14 -56 41 -56 74 0
18 -4 33 -10 33 -5 0 -10 16 -10 36 0 19 -7 42 -15 50 -8 9 -15 26 -15 39 0
13 -4 27 -10 30 -5 3 -10 17 -10 31 0 13 -4 24 -10 24 -5 0 -10 -7 -10 -15 0
-8 -4 -15 -10 -15 -5 0 -10 -7 -10 -15 0 -8 7 -15 15 -15 9 0 15 -9 15 -24 0
-13 7 -29 16 -37 9 -8 14 -22 11 -37 -3 -15 2 -31 13 -42 18 -18 33 -80 19
-80 -5 0 -18 4 -31 9 -70 28 -223 71 -293 81 -44 6 -90 16 -103 21 -13 5 -94
11 -180 14 -86 3 -170 8 -186 10 -16 3 -34 1 -41 -5 -6 -5 -46 -10 -88 -12
-42 -1 -77 -4 -77 -8 0 -3 -21 -11 -47 -16 -138 -31 -295 -81 -328 -105 -6 -4
-23 -12 -38 -18 -25 -10 -27 -8 -27 13 0 14 12 38 26 56 15 17 23 30 18 29 -5
-1 -12 -1 -16 0 -8 1 18 81 39 120 16 32 17 53 1 70 -11 11 -9 15 6 25 71 42
236 188 236 208 0 4 4 8 10 8 5 0 29 21 52 47 24 26 67 71 96 100 28 29 52 57
52 62 0 17 101 28 254 28 l149 1 66 -69z m-501 54 c-9 -2 -19 -16 -23 -31 -5
-20 -8 -23 -16 -11 -19 31 -11 49 24 48 17 -1 25 -3 15 -6z m672 -142 c-6 -12
-8 -26 -5 -31 3 -6 2 -10 -4 -10 -20 0 -22 20 -4 44 21 28 29 27 13 -3z
m-1100 -332 c0 -6 -6 -23 -14 -37 -34 -64 -48 -106 -44 -133 3 -20 0 -29 -9
-29 -9 0 -13 -14 -13 -46 0 -52 -14 -84 -37 -84 -19 0 -153 -88 -153 -100 0
-5 -7 -7 -15 -3 -9 3 -15 1 -13 -5 5 -18 -70 -82 -97 -82 -14 0 -25 -6 -26
-12 -1 -7 -5 3 -9 22 -5 19 -5 55 0 80 5 25 11 59 13 75 3 22 4 17 6 -15 2
-58 20 -90 22 -40 3 53 -2 94 -12 100 -13 9 23 129 41 135 9 3 25 13 36 23 23
21 127 72 147 72 8 0 20 7 27 15 24 29 41 18 34 -22 -4 -21 -10 -43 -15 -48
-4 -6 -10 -40 -12 -77 -3 -37 -8 -72 -12 -78 -3 -5 -2 -10 3 -10 14 0 30 41
36 95 4 27 11 54 16 59 6 6 10 27 10 48 0 35 10 54 48 94 16 17 42 18 42 3z
m-352 -128 c-5 -24 -33 -20 -34 5 -1 16 3 20 18 16 11 -2 18 -12 16 -21z
m1199 -51 c157 -13 255 -28 267 -40 5 -5 29 -10 53 -10 24 0 43 -4 43 -9 0 -5
20 -12 45 -15 24 -4 47 -11 50 -17 4 -5 17 -9 29 -9 13 0 29 -7 36 -15 7 -8
20 -15 30 -15 9 0 47 -16 84 -35 37 -19 78 -35 91 -35 13 0 28 -6 32 -13 4 -7
19 -18 33 -24 l25 -12 -27 0 c-14 -1 -28 5 -31 12 -3 9 -9 9 -28 0 -42 -21
-113 -50 -154 -64 -22 -7 -44 -17 -49 -21 -6 -4 -19 -8 -30 -8 -12 0 -34 -7
-50 -15 -15 -8 -35 -15 -43 -15 -9 0 -38 -7 -67 -16 -94 -30 -112 -34 -140
-34 -14 0 -43 -7 -63 -15 -19 -8 -63 -15 -97 -15 -34 0 -77 -5 -96 -10 -20 -7
-140 -11 -285 -11 -213 0 -269 3 -375 21 -69 12 -143 24 -165 27 -22 3 -44 9
-50 13 -5 4 -28 11 -50 15 -22 4 -43 11 -46 16 -3 6 -34 10 -67 11 -35 0 -62
5 -62 11 0 20 132 126 195 157 17 8 32 18 35 21 3 3 23 14 45 23 61 27 98 42
125 54 25 10 75 26 179 56 29 9 70 16 90 16 20 0 41 4 46 9 6 5 73 11 149 15
76 3 141 8 144 11 3 3 14 3 24 -1 10 -3 66 -9 125 -14z m880 -267 c-4 -3 -10
-3 -14 0 -3 4 0 7 7 7 7 0 10 -3 7 -7z m-14 -53 c18 -22 42 -57 52 -77 10 -21
22 -46 26 -55 5 -10 9 -29 9 -42 0 -14 4 -27 9 -30 5 -4 12 -25 16 -49 4 -23
11 -46 15 -52 4 -5 10 -23 13 -40 14 -77 28 -132 36 -150 5 -11 12 -42 16 -70
12 -97 15 -89 -40 -97 -82 -11 -119 -19 -140 -28 -11 -5 -42 -18 -70 -28 -40
-16 -51 -25 -53 -46 -3 -20 -9 -26 -26 -26 -24 0 -54 -26 -42 -37 3 -3 14 1
24 10 10 10 22 17 26 17 5 0 34 16 66 35 32 19 67 35 79 35 11 0 21 5 21 10 0
6 17 10 38 10 20 1 48 7 62 15 37 21 50 18 50 -10 0 -14 -4 -25 -10 -25 -5 0
-10 -8 -10 -18 0 -10 -7 -27 -15 -38 -8 -10 -15 -26 -15 -36 0 -22 -16 -26
-64 -17 -65 12 -156 -1 -156 -21 0 -18 39 -19 162 -6 19 2 25 -1 19 -8 -5 -6
-9 -15 -9 -20 3 -31 -237 -270 -299 -299 -13 -6 -23 -14 -23 -19 0 -4 -6 -8
-14 -8 -8 0 -16 -4 -18 -9 -6 -15 -93 -62 -228 -123 -36 -16 -73 -34 -82 -39
-10 -5 -26 -9 -36 -9 -10 0 -22 -4 -28 -9 -11 -11 -77 -29 -154 -42 -30 -4
-75 -13 -100 -18 -133 -29 -470 3 -605 58 -39 16 -92 31 -109 31 -9 0 -19 7
-22 15 -4 8 -14 15 -24 15 -16 0 -77 27 -90 40 -10 10 -45 31 -63 36 -9 4 -17
10 -17 15 0 5 -5 9 -11 9 -30 0 -236 189 -222 204 3 3 57 6 120 6 90 0 113 3
113 14 0 20 -121 31 -194 17 -65 -12 -76 -9 -76 20 0 10 -4 19 -10 19 -5 0
-10 6 -10 13 0 6 -6 24 -14 38 -7 14 -16 37 -20 52 -6 24 -3 27 18 27 14 0 27
-4 30 -9 3 -4 31 -11 62 -14 31 -3 62 -11 67 -16 6 -6 19 -11 28 -11 9 0 40
-12 68 -26 57 -30 100 -27 65 4 -51 45 -175 85 -307 99 l-48 5 5 166 c5 215
28 374 57 407 5 5 9 19 9 31 0 34 36 110 55 118 9 3 28 6 42 6 31 0 201 -39
225 -51 10 -5 32 -9 49 -9 17 0 61 -6 98 -14 166 -36 455 -48 635 -26 45 5
122 14 171 20 50 5 110 14 135 19 25 6 73 16 107 23 34 7 65 16 69 21 4 4 17
7 30 7 12 0 35 7 50 15 16 8 39 15 51 15 12 0 25 5 28 10 3 6 15 10 25 10 10
0 31 6 47 14 15 8 44 21 63 29 19 7 46 19 60 25 14 6 46 11 72 11 42 1 50 -3
81 -39z m37 30 c0 -5 -5 -10 -11 -10 -5 0 -7 5 -4 10 3 6 8 10 11 10 2 0 4 -4
4 -10z m-2093 -77 c-4 -3 -7 0 -7 7 0 7 3 10 7 7 3 -4 3 -10 0 -14z m-33 1
c25 -10 19 -21 -14 -26 -36 -5 -43 -1 -27 18 14 15 19 16 41 8z m-4 -53 c0 -5
-7 -14 -15 -21 -13 -10 -15 -9 -15 9 0 12 6 21 15 21 8 0 15 -4 15 -9z m2180
-886 c0 -3 -2 -5 -5 -5 -3 0 -5 2 -5 5 0 3 2 5 5 5 3 0 5 -2 5 -5z m27 -47
c12 -27 62 -88 142 -174 84 -91 130 -148 131 -161 0 -11 -90 -83 -104 -83 -4
0 -56 -36 -117 -80 -60 -44 -112 -80 -115 -80 -3 0 -17 -11 -32 -25 -15 -14
-32 -25 -39 -25 -7 0 -13 -4 -13 -8 0 -5 -22 -24 -50 -43 -27 -19 -50 -37 -50
-41 0 -5 -6 -8 -14 -8 -8 0 -16 -3 -18 -7 -1 -5 -22 -20 -45 -35 -23 -15 -66
-48 -95 -73 -65 -56 -66 -57 -103 -81 -17 -10 -36 -25 -44 -32 -8 -8 -31 -24
-52 -37 -20 -14 -40 -29 -44 -35 -11 -18 -54 -11 -66 12 -6 12 -20 31 -31 42
-11 12 -28 37 -39 56 -30 55 -51 86 -76 115 -7 7 -13 16 -13 20 0 3 -8 14 -17
25 -10 10 -27 36 -38 57 -19 36 -26 47 -50 76 -5 7 -17 25 -25 41 -8 16 -23
31 -32 34 -10 2 -18 14 -19 26 0 14 -2 16 -6 6 -9 -24 -26 -30 -60 -24 -26 5
-34 2 -39 -12 -3 -11 -10 -27 -15 -36 -5 -10 -9 -27 -9 -39 0 -11 -4 -28 -9
-37 -14 -28 -23 -92 -12 -92 17 0 42 32 37 47 -4 8 0 29 8 46 8 18 16 45 18
62 3 26 8 31 43 37 34 5 43 3 57 -15 17 -21 71 -108 93 -148 5 -11 13 -19 17
-19 5 0 8 -11 8 -25 0 -21 -5 -25 -28 -25 -16 0 -64 -3 -106 -7 -73 -6 -77 -5
-83 15 -7 27 -14 27 -36 2 -18 -22 -37 -19 -37 6 0 27 -16 14 -34 -28 -9 -24
-21 -51 -27 -60 -5 -10 -9 -22 -9 -28 0 -5 -12 -35 -26 -67 -14 -32 -32 -73
-40 -90 -17 -40 -47 -43 -102 -10 -20 12 -67 37 -105 56 -37 18 -70 37 -73 42
-3 5 -14 9 -25 9 -10 0 -19 3 -19 8 0 4 -20 16 -45 27 -25 11 -45 23 -45 26 0
4 -14 10 -30 14 -16 4 -30 11 -30 16 0 5 -7 9 -16 9 -8 0 -22 7 -30 15 -9 8
-24 15 -35 15 -10 0 -19 5 -19 10 0 6 -9 10 -20 10 -38 0 -35 40 10 122 6 10
10 25 10 33 0 15 3 23 33 83 9 19 17 42 17 53 0 10 5 19 10 19 6 0 10 8 10 17
0 9 8 34 18 55 l17 38 65 -5 c64 -6 93 -12 195 -40 28 -8 64 -16 80 -19 17 -3
55 -10 85 -15 92 -18 309 -32 328 -21 9 5 51 14 92 20 151 21 231 41 308 76
29 13 55 24 59 24 13 0 178 83 181 91 2 5 8 9 13 9 12 0 113 62 117 72 2 4 8
8 13 8 20 0 175 119 238 182 33 33 45 34 58 6z m-1797 -354 c0 -2 -7 -4 -15
-4 -8 0 -15 4 -15 10 0 5 7 7 15 4 8 -4 15 -8 15 -10z m2080 -77 c0 -23 8 -40
25 -55 21 -18 24 -26 15 -42 -14 -26 -27 -25 -35 1 -6 16 -14 20 -43 18 -21
-1 -47 2 -59 6 -26 8 -31 35 -8 35 9 0 18 6 21 14 3 8 19 20 35 26 16 7 29 16
29 21 0 5 5 9 10 9 6 0 10 -15 10 -33z m80 -111 c0 -3 -4 -8 -10 -11 -5 -3
-10 -1 -10 4 0 6 5 11 10 11 6 0 10 -2 10 -4z m-2270 -347 c0 -5 -4 -9 -10 -9
-5 0 -10 7 -10 16 0 8 5 12 10 9 6 -3 10 -10 10 -16z m40 -8 c0 -5 -7 -12 -16
-15 -24 -9 -28 -7 -14 9 14 17 30 20 30 6z M3170 4095 c-14 -8 -35 -20 -47
-26 -19 -10 -34 -49 -19 -49 22 0 117 70 111 81 -8 12 -16 11 -45 -6z M3170
3983 c-16 -6 -30 -23 -30 -35 0 -12 48 -10 55 2 3 6 22 10 41 10 24 0 34 4 32
13 -5 13 -73 20 -98 10z M3187 3892 c-9 -2 -17 -10 -17 -18 0 -10 14 -14 55
-14 30 0 55 3 55 8 -1 26 -34 35 -93 24z M3175 3800 c-3 -6 2 -13 12 -16 10
-3 28 -10 41 -15 44 -17 56 -5 26 25 -17 18 -69 22 -79 6z M3172 3719 c5 -15
56 -45 63 -37 12 12 -20 48 -43 48 -13 0 -22 -5 -20 -11z M1825 4060 c-8 -13
-11 -10 42 -44 70 -43 103 -29 41 17 -41 31 -74 41 -83 27z M1752 3948 c3 -7
17 -14 32 -15 15 -1 33 -6 39 -12 18 -14 69 -18 74 -5 2 6 -12 19 -31 28 -41
19 -120 22 -114 4z M1764 3849 c-8 -14 16 -31 35 -24 7 3 19 1 26 -5 9 -8 18
-6 30 6 13 14 14 19 3 25 -19 13 -86 11 -94 -2z M1788 3769 c-42 -24 -14 -47
40 -33 13 4 22 14 22 25 0 21 -33 25 -62 8z M1817 3682 c-23 -25 -21 -34 6
-30 14 2 23 11 25 26 4 27 -9 28 -31 4z M2450 3969 c-25 -11 -52 -22 -60 -25
-9 -3 -22 -18 -29 -35 -7 -16 -19 -29 -27 -29 -8 0 -13 -9 -11 -22 1 -13 -3
-22 -9 -21 -19 4 -25 -82 -8 -116 13 -26 13 -36 2 -67 -11 -32 -11 -37 5 -49
9 -6 17 -15 17 -18 0 -7 22 -35 60 -75 36 -38 170 -79 170 -52 0 6 -8 10 -19
10 -41 0 -181 98 -181 127 0 3 -7 11 -16 18 -12 8 -15 20 -10 39 l7 27 39 -31
c28 -22 46 -29 60 -25 11 4 20 2 20 -4 0 -6 -4 -11 -10 -11 -5 0 -10 -7 -10
-15 0 -8 5 -15 10 -15 6 0 10 5 10 10 0 6 6 10 13 10 17 0 39 37 27 45 -6 3
-14 4 -19 1 -5 -4 -7 3 -4 14 11 41 47 20 66 -40 4 -10 6 -8 6 6 1 12 15 31
31 44 30 23 40 50 19 50 -32 0 -49 61 -26 91 33 43 107 25 107 -27 0 -26 -20
-54 -39 -54 -6 0 -11 -7 -11 -15 0 -24 27 -18 55 12 30 34 31 51 4 97 -19 32
-25 36 -63 36 -49 0 -86 -30 -86 -71 0 -56 -83 -134 -105 -99 -3 6 -13 10 -22
10 -19 0 -93 31 -93 39 0 3 7 24 16 46 8 22 17 48 21 58 3 9 9 17 14 17 5 0 9
5 9 10 0 18 53 61 82 67 16 3 31 10 34 14 7 12 111 11 119 -1 3 -5 16 -10 29
-10 20 0 35 -12 97 -79 10 -12 19 -30 19 -41 0 -11 5 -20 10 -20 16 0 12 -96
-6 -150 -25 -76 -102 -149 -167 -158 -35 -4 -38 -7 -23 -17 48 -36 181 54 213
142 27 77 32 125 17 171 -8 23 -12 53 -9 65 4 13 3 17 -2 10 -11 -15 -37 0
-31 18 6 17 -30 50 -79 74 -21 10 -46 22 -55 26 -31 16 -131 9 -178 -12z m110
-270 c0 -5 -4 -9 -10 -9 -5 0 -10 7 -10 16 0 8 5 12 10 9 6 -3 10 -10 10 -16z
m-130 -34 c0 -3 -2 -5 -5 -5 -3 0 -5 2 -5 5 0 3 2 5 5 5 3 0 5 -2 5 -5z M2314
3928 c-4 -7 -3 -8 4 -4 7 4 12 9 12 12 0 8 -9 4 -16 -8z M2836 3837 c3 -10 9
-15 12 -12 3 3 0 11 -7 18 -10 9 -11 8 -5 -6z M2613 3803 c-31 -12 -7 -57 25
-46 6 3 12 16 12 29 0 23 -11 28 -37 17z M2880 3765 c0 -3 2 -5 5 -5 3 0 5 2
5 5 0 3 -2 5 -5 5 -3 0 -5 -2 -5 -5z M2880 3715 c0 -3 2 -5 5 -5 3 0 5 2 5 5
0 3 -2 5 -5 5 -3 0 -5 -2 -5 -5z M2960 3685 c0 -3 2 -5 5 -5 3 0 5 2 5 5 0 3
-2 5 -5 5 -3 0 -5 -2 -5 -5z M2830 3670 c0 -5 5 -10 10 -10 6 0 10 5 10 10 0
6 -4 10 -10 10 -5 0 -10 -4 -10 -10z M3030 3670 c0 -7 3 -10 7 -7 3 4 3 10 0
14 -4 3 -7 0 -7 -7z M2201 3614 c0 -11 3 -14 6 -6 3 7 2 16 -1 19 -3 4 -6 -2
-5 -13z M3151 3594 c0 -11 3 -14 6 -6 3 7 2 16 -1 19 -3 4 -6 -2 -5 -13z
M2502 3588 c5 -15 28 -18 29 -3 0 6 -7 12 -17 13 -10 3 -15 -1 -12 -10z M2810
3595 c0 -3 2 -5 5 -5 3 0 5 2 5 5 0 3 -2 5 -5 5 -3 0 -5 -2 -5 -5z M3120 3565
c0 -3 2 -5 5 -5 3 0 5 2 5 5 0 3 -2 5 -5 5 -3 0 -5 -2 -5 -5z M2880 3485 c0
-3 2 -5 5 -5 3 0 5 2 5 5 0 3 -2 5 -5 5 -3 0 -5 -2 -5 -5z M2940 3485 c0 -3 2
-5 5 -5 3 0 5 2 5 5 0 3 -2 5 -5 5 -3 0 -5 -2 -5 -5z M3323 3433 c4 -3 10 -3
14 0 3 4 0 7 -7 7 -7 0 -10 -3 -7 -7z M1873 3383 c4 -3 10 -3 14 0 3 4 0 7 -7
7 -7 0 -10 -3 -7 -7z M3400 3355 c0 -3 2 -5 5 -5 3 0 5 2 5 5 0 3 -2 5 -5 5
-3 0 -5 -2 -5 -5z M3510 3340 c0 -5 7 -10 16 -10 8 0 12 5 9 10 -3 6 -10 10
-16 10 -5 0 -9 -4 -9 -10z M3370 3335 c0 -3 2 -5 5 -5 3 0 5 2 5 5 0 3 -2 5
-5 5 -3 0 -5 -2 -5 -5z M3430 3313 c0 -7 -4 -13 -10 -13 -5 0 -10 -11 -10 -24
0 -14 5 -28 10 -31 6 -4 10 7 10 25 0 31 0 32 40 25 33 -6 40 -4 40 9 0 9 -8
16 -17 17 -10 0 -28 2 -40 3 -14 2 -23 -3 -23 -11z M3510 3205 c0 -3 2 -5 5
-5 3 0 5 2 5 5 0 3 -2 5 -5 5 -3 0 -5 -2 -5 -5z M3538 3198 c9 -9 15 -9 24 0
9 9 7 12 -12 12 -19 0 -21 -3 -12 -12z M1677 3356 c-4 -10 -1 -13 8 -9 8 3 12
9 9 14 -7 12 -11 11 -17 -5z M1508 3179 c3 -68 1 -78 -15 -82 -14 -4 -15 -5
-2 -6 28 -2 43 27 40 78 -2 45 0 49 23 53 14 3 28 3 31 0 11 -11 4 -50 -10
-56 -18 -6 -21 -40 -3 -34 6 2 15 11 18 19 4 8 12 24 18 36 9 17 8 22 -5 27
-8 3 -13 13 -9 21 6 16 -10 30 -18 16 -3 -5 -21 -6 -38 -2 l-33 8 3 -78z
M1853 3043 c4 -3 10 -3 14 0 3 4 0 7 -7 7 -7 0 -10 -3 -7 -7z M3560 2975 c0
-3 2 -5 5 -5 3 0 5 2 5 5 0 3 -2 5 -5 5 -3 0 -5 -2 -5 -5z M3570 2915 c0 -3 2
-5 5 -5 3 0 5 2 5 5 0 3 -2 5 -5 5 -3 0 -5 -2 -5 -5z M2790 2829 c0 -5 5 -7
10 -4 6 3 10 8 10 11 0 2 -4 4 -10 4 -5 0 -10 -5 -10 -11z M2760 2774 c0 -14
-6 -32 -14 -40 -8 -7 -12 -23 -9 -34 3 -11 -2 -31 -11 -45 -22 -33 -23 -270
-1 -299 8 -11 12 -30 8 -47 -4 -22 -2 -29 11 -29 22 0 22 67 0 91 -18 20 -22
252 -5 273 5 6 12 30 16 53 4 24 11 45 16 49 12 7 12 54 -1 54 -5 0 -10 -12
-10 -26z M3060 2750 c-61 -20 -142 -97 -173 -163 -10 -20 -22 -39 -27 -42 -6
-3 -10 -16 -10 -29 0 -12 -3 -26 -7 -29 -16 -17 -43 -116 -43 -158 0 -44 3
-50 44 -83 23 -20 48 -36 55 -36 6 0 19 -4 29 -9 35 -19 131 -34 169 -26 21 4
52 9 68 12 17 3 32 9 35 12 3 3 23 15 44 26 22 11 54 34 70 51 111 114 126
145 126 254 0 63 -4 84 -17 98 -10 10 -27 30 -38 45 -11 15 -25 27 -31 27 -7
0 -14 7 -18 15 -3 8 -14 15 -25 15 -11 0 -21 5 -23 11 -2 7 -24 11 -51 11 -25
-1 -49 3 -52 8 -10 15 -65 11 -125 -10z m70 5 c0 -3 -2 -5 -5 -5 -3 0 -5 2 -5
5 0 3 2 5 5 5 3 0 5 -2 5 -5z m-30 -38 c0 -7 -11 -21 -25 -31 -14 -10 -25 -25
-25 -32 0 -7 -3 -14 -7 -16 -43 -18 -58 -170 -24 -236 40 -77 109 -116 190
-107 67 8 93 -8 42 -26 -17 -6 -31 -15 -31 -20 0 -5 -9 -9 -21 -9 -11 0 -29
-5 -40 -11 -28 -15 -150 -15 -190 0 -117 45 -134 62 -124 123 7 47 34 128 47
143 4 5 8 15 8 23 0 7 11 28 25 46 14 18 25 38 25 43 0 16 119 123 136 123 8
0 14 -6 14 -13z m100 3 c0 -7 13 -8 35 -4 23 4 35 2 35 -5 0 -6 6 -11 14 -11
7 0 19 -7 26 -15 7 -8 21 -15 32 -15 15 0 17 -3 9 -19 -12 -21 -5 -32 14 -25
17 7 29 -14 17 -29 -18 -24 -22 -46 -6 -40 7 3 14 11 14 19 0 8 4 14 9 14 15
0 11 -119 -5 -135 -8 -7 -14 -23 -14 -34 0 -23 -16 -37 -23 -19 -2 7 -10 -6
-17 -29 -14 -45 -44 -63 -59 -35 -9 15 -11 15 -28 -1 -11 -9 -26 -17 -33 -17
-24 0 -85 25 -93 38 -5 7 -12 10 -16 7 -13 -7 -44 32 -38 48 3 7 -4 19 -14 26
-11 6 -19 17 -18 24 1 7 -1 20 -6 30 -4 10 -2 23 4 31 7 8 11 18 10 22 -1 5 2
28 6 52 6 35 10 40 22 31 11 -10 15 -8 20 9 3 12 9 20 13 17 5 -3 6 3 3 13 -6
26 28 53 80 61 4 0 7 -4 7 -9z M3280 2655 c0 -3 2 -5 5 -5 3 0 5 2 5 5 0 3 -2
5 -5 5 -3 0 -5 -2 -5 -5z M3107 2614 c-11 -11 -8 -44 3 -44 15 0 24 30 13 41
-5 5 -12 6 -16 3z M3105 2540 c-3 -5 3 -15 15 -22 11 -7 20 -18 20 -24 0 -12
46 -54 60 -54 6 0 10 7 10 15 0 8 -6 15 -14 15 -7 0 -24 16 -37 35 -26 37 -45
50 -54 35z M3366 2495 c4 -8 10 -15 15 -15 4 0 6 7 3 15 -4 8 -10 15 -15 15
-4 0 -6 -7 -3 -15z M3250 2490 c0 -7 3 -10 7 -7 3 4 3 10 0 14 -4 3 -7 0 -7
-7z M3077 2469 c3 -10 12 -19 19 -19 20 0 17 13 -5 27 -16 10 -18 9 -14 -8z
M3300 2455 c0 -3 2 -5 5 -5 3 0 5 2 5 5 0 3 -2 5 -5 5 -3 0 -5 -2 -5 -5z
M3217 2401 c-3 -12 -1 -24 4 -27 13 -8 24 25 12 37 -7 7 -12 3 -16 -10z M3108
2403 c6 -2 18 -2 25 0 6 3 1 5 -13 5 -14 0 -19 -2 -12 -5z M1990 2729 c-47 -6
-95 -25 -120 -47 -53 -47 -100 -98 -100 -109 0 -7 -4 -13 -10 -13 -12 0 -13
-122 -1 -135 5 -6 14 -26 20 -46 6 -19 19 -46 29 -59 33 -46 117 -130 130
-130 6 0 12 -4 12 -8 0 -30 268 -60 285 -32 3 6 15 10 25 10 25 0 89 30 115
53 25 22 25 99 1 148 -9 18 -16 41 -16 51 0 21 -50 131 -62 136 -5 2 -8 9 -8
16 0 24 -103 136 -125 136 -7 0 -18 6 -24 14 -14 16 -86 24 -151 15z m99 -40
c39 -14 41 -39 3 -39 -29 0 -92 -51 -92 -75 0 -7 -7 -18 -15 -25 -22 -19 -21
-152 3 -193 23 -43 61 -81 99 -101 42 -21 146 -22 167 -1 8 8 24 15 35 15 11
0 29 12 40 27 24 29 34 26 34 -12 0 -33 -16 -50 -66 -73 -201 -94 -414 -2
-492 212 -25 68 -26 79 -15 108 28 71 114 136 204 154 34 6 61 12 62 13 1 0
15 -4 33 -10z m66 -38 c-3 -5 4 -13 16 -16 18 -6 20 -13 16 -43 -3 -21 -3 -29
-1 -20 6 18 44 21 44 3 0 -6 9 -21 20 -33 11 -12 20 -26 20 -31 0 -6 6 -14 14
-18 7 -4 16 -24 19 -43 2 -19 9 -49 15 -67 8 -26 7 -34 -7 -47 -15 -14 -20
-11 -59 39 -24 30 -47 55 -53 55 -21 0 -7 -30 29 -61 33 -29 38 -38 33 -67 0
-5 -30 -14 -65 -21 -58 -12 -66 -11 -86 6 -60 48 -84 75 -73 79 7 3 9 12 6 19
-4 11 -10 12 -24 4 -22 -11 -22 -9 -9 25 6 16 6 27 0 31 -13 8 -13 55 -1 55 5
0 11 -6 14 -12 2 -8 8 -9 13 -4 5 5 4 11 -3 13 -15 6 -17 42 -3 63 8 13 11 11
16 -7 4 -13 12 -23 20 -23 7 0 22 -10 34 -22 26 -28 36 -17 19 22 -9 19 -19
28 -28 25 -15 -6 -41 12 -41 27 0 7 5 6 13 -1 16 -12 28 -5 21 13 -3 7 7 18
21 24 14 7 28 19 31 27 4 8 10 15 16 15 5 0 7 -4 3 -9z M2210 2485 c0 -3 2 -5
5 -5 3 0 5 2 5 5 0 3 -2 5 -5 5 -3 0 -5 -2 -5 -5z M2126 2471 c-3 -5 5 -16 19
-25 21 -14 25 -14 25 -2 0 18 -36 40 -44 27z M2048 2433 c6 -2 18 -2 25 0 6 3
1 5 -13 5 -14 0 -19 -2 -12 -5z M2113 2403 c4 -3 10 -3 14 0 3 4 0 7 -7 7 -7
0 -10 -3 -7 -7z M3680 2506 c0 -8 5 -18 10 -21 6 -3 10 3 10 14 0 12 -4 21
-10 21 -5 0 -10 -6 -10 -14z M3653 2443 c4 -3 10 -3 14 0 3 4 0 7 -7 7 -7 0
-10 -3 -7 -7z M3470 2385 c0 -3 2 -5 5 -5 3 0 5 2 5 5 0 3 -2 5 -5 5 -3 0 -5
-2 -5 -5z M2760 2255 c0 -8 5 -15 10 -15 6 0 10 7 10 15 0 8 -4 15 -10 15 -5
0 -10 -7 -10 -15z M2800 2212 c0 -5 7 -15 15 -22 8 -7 15 -8 15 -2 0 5 -7 15
-15 22 -8 7 -15 8 -15 2z M3315 2205 c-16 -7 -41 -18 -55 -23 -25 -11 -25 -11
6 -11 17 -1 37 6 44 14 7 9 20 15 29 14 30 -3 42 1 36 11 -8 13 -23 12 -60 -5z
M2531 2171 c-13 -23 10 -47 34 -37 8 3 15 1 15 -4 0 -17 24 -10 53 15 41 36
34 45 -33 45 -48 0 -61 -4 -69 -19z M2840 2180 c0 -5 12 -10 28 -9 24 0 25 1
7 9 -27 12 -35 12 -35 0z M2913 2153 c4 -3 10 -3 14 0 3 4 0 7 -7 7 -7 0 -10
-3 -7 -7z M2955 2150 c3 -5 13 -10 21 -10 8 0 14 5 14 10 0 6 -9 10 -21 10
-11 0 -17 -4 -14 -10z M3155 2150 c3 -5 15 -10 25 -10 10 0 22 5 25 10 4 6 -7
10 -25 10 -18 0 -29 -4 -25 -10z M2792 2074 c-34 -34 -77 -45 -98 -24 -5 5
-35 12 -66 16 -47 5 -64 3 -98 -15 -22 -11 -50 -21 -61 -21 -23 0 -79 30 -79
42 0 15 -28 8 -34 -8 -7 -19 12 -37 64 -60 38 -16 61 -13 127 17 44 20 106 19
119 -2 3 -5 32 -9 64 -9 53 0 61 3 94 35 20 19 36 41 36 50 0 25 -33 15 -68
-21z M3780 1756 c0 -21 47 -69 55 -57 8 14 -11 48 -35 61 -16 8 -20 8 -20 -4z
M3740 1712 c0 -18 28 -45 39 -38 9 6 8 13 -5 27 -18 20 -34 25 -34 11z M3705
1670 c-7 -12 2 -30 16 -30 5 0 9 9 9 20 0 21 -15 27 -25 10z M2910 1515 c0 -3
2 -5 5 -5 3 0 5 2 5 5 0 3 -2 5 -5 5 -3 0 -5 -2 -5 -5z M2572 1358 c-20 -20
-14 -62 10 -77 16 -10 23 -10 26 -2 2 6 10 11 17 11 23 0 27 18 10 50 -16 31
-42 39 -63 18z m38 -27 c0 -6 -4 -13 -10 -16 -5 -3 -10 1 -10 9 0 9 5 16 10
16 6 0 10 -4 10 -9z M2278 1093 c-8 -10 -18 -33 -22 -51 -5 -28 -3 -33 12 -30
11 2 18 14 20 33 2 17 8 34 13 40 5 5 9 13 9 17 0 14 -16 9 -32 -9z M2181
1081 c-10 -6 -5 -13 20 -25 36 -18 49 -14 33 12 -13 20 -34 25 -53 13z M3913
1550 c-2 -18 0 -18 13 -6 17 18 18 26 1 26 -7 0 -13 -9 -14 -20z M3990 1515
c0 -3 2 -5 5 -5 3 0 5 2 5 5 0 3 -2 5 -5 5 -3 0 -5 -2 -5 -5z M4160 4545 c22
-29 38 -45 45 -45 3 0 31 -25 63 -55 62 -59 82 -69 30 -13 -43 45 -157 139
-138 113z M894 4498 l-29 -33 30 25 c17 14 34 28 40 32 5 5 5 8 -1 8 -6 0 -23
-15 -40 -32z M835 4450 c-10 -11 -16 -23 -12 -26 3 -3 10 4 17 15 6 12 16 18
22 15 7 -4 8 -3 4 4 -9 16 -10 15 -31 -8z M761 4376 c-21 -22 -29 -36 -22 -41
7 -4 10 -1 9 7 -2 7 3 12 10 11 6 -2 11 3 10 10 -2 6 4 11 12 9 8 -2 12 0 8 4
-4 4 0 13 10 20 9 7 12 14 6 14 -5 0 -25 -15 -43 -34z M4336 4381 c-6 -9 22
-37 33 -34 3 0 5 -3 3 -9 -1 -5 3 -6 9 -3 13 8 -4 30 -24 30 -7 1 -11 6 -9 13
2 14 -4 16 -12 3z M638 4244 c-40 -47 -77 -93 -82 -102 -12 -22 -10 -20 72 75
38 45 73 80 76 77 3 -2 4 -1 1 3 -3 3 3 12 13 19 9 7 12 14 5 14 -6 0 -45 -39
-85 -86z M4401 4314 c7 -9 35 -37 60 -62 26 -26 45 -51 42 -56 -3 -5 -1 -6 6
-2 11 7 -26 55 -90 119 -23 21 -36 23 -18 1z M2040 4315 c0 -3 2 -5 5 -5 3 0
5 2 5 5 0 3 -2 5 -5 5 -3 0 -5 -2 -5 -5z M4538 4169 c12 -14 22 -29 22 -33 0
-4 10 -17 21 -29 l22 -22 -19 33 c-10 18 -30 43 -44 55 l-25 22 23 -26z M530
4114 c0 -6 -9 -19 -19 -31 -26 -28 -54 -83 -41 -83 5 0 10 6 10 13 0 7 14 32
31 55 17 24 29 46 25 49 -3 4 -6 2 -6 -3z M4600 4075 c0 -3 2 -5 5 -5 3 0 5 2
5 5 0 3 -2 5 -5 5 -3 0 -5 -2 -5 -5z M4625 4050 c3 -5 8 -10 11 -10 3 0 2 5
-1 10 -3 6 -8 10 -11 10 -3 0 -2 -4 1 -10z M4640 4025 c0 -3 2 -5 5 -5 3 0 5
2 5 5 0 3 -2 5 -5 5 -3 0 -5 -2 -5 -5z M436 3983 c-6 -14 -5 -15 5 -6 7 7 10
15 7 18 -3 3 -9 -2 -12 -12z M4670 3991 c0 -6 4 -13 10 -16 6 -3 7 1 4 9 -7
18 -14 21 -14 7z M392 3910 c-47 -72 -99 -171 -73 -140 12 14 24 35 27 47 3
13 10 20 15 17 5 -3 8 -2 7 3 -3 10 29 72 50 96 8 9 13 19 11 22 -3 2 -19 -18
-37 -45z M4690 3952 c0 -5 10 -17 21 -28 22 -19 22 -19 10 3 -12 24 -31 39
-31 25z M4730 3895 c0 -12 69 -123 70 -113 0 8 -35 72 -56 103 -8 11 -14 15
-14 10z M4800 3760 c0 -7 3 -10 7 -7 3 4 3 10 0 14 -4 3 -7 0 -7 -7z M290
3735 c0 -3 2 -5 5 -5 3 0 5 2 5 5 0 3 -2 5 -5 5 -3 0 -5 -2 -5 -5z M4820 3735
c0 -5 5 -17 10 -25 5 -8 10 -10 10 -5 0 6 -5 17 -10 25 -5 8 -10 11 -10 5z
M260 3680 c-12 -23 -19 -44 -17 -47 3 -2 8 5 12 16 3 12 11 21 17 21 6 0 8 3
5 7 -4 3 -2 12 5 20 6 7 8 16 5 19 -3 3 -15 -13 -27 -36z M4846 3681 c-3 -4 3
-19 14 -31 11 -13 20 -18 20 -12 0 6 -7 17 -15 25 -8 8 -11 17 -8 21 4 3 4 6
0 6 -3 0 -8 -4 -11 -9z M226 3603 c-6 -14 -5 -15 5 -6 7 7 10 15 7 18 -3 3 -9
-2 -12 -12z M4886 3600 c9 -33 46 -112 50 -107 3 2 -9 33 -26 68 -16 35 -27
53 -24 39z M207 3563 c-3 -10 -15 -42 -26 -71 -12 -30 -17 -51 -12 -48 5 4 12
20 16 36 4 17 11 30 16 30 5 0 8 3 7 8 -1 4 2 17 6 30 4 13 6 26 3 28 -2 3 -7
-3 -10 -13z M4940 3475 c0 -5 5 -17 10 -25 5 -8 10 -10 10 -5 0 6 -5 17 -10
25 -5 8 -10 11 -10 5z M141 3388 c-7 -24 -15 -50 -18 -58 -3 -8 2 -6 10 6 15
20 34 94 24 94 -2 0 -10 -19 -16 -42z M4961 3418 c-1 -18 29 -101 35 -96 1 2
-6 28 -16 58 -10 30 -19 47 -19 38z M4996 3295 c-3 -8 -1 -15 4 -15 6 0 10 7
10 15 0 8 -2 15 -4 15 -2 0 -6 -7 -10 -15z M102 3261 c-18 -57 -14 -62 8 -12
23 49 23 51 12 51 -5 0 -14 -17 -20 -39z M5010 3260 c0 -7 3 -10 7 -7 3 4 3
10 0 14 -4 3 -7 0 -7 -7z M5022 3225 c0 -11 3 -29 8 -40 11 -25 11 1 0 35 -6
20 -8 21 -8 5z M81 3184 c0 -11 3 -14 6 -6 3 7 2 16 -1 19 -3 4 -6 -2 -5 -13z
M61 3104 c-7 -30 -11 -58 -8 -61 3 -2 11 21 17 52 6 31 10 59 7 61 -2 2 -9
-21 -16 -52z M5042 3145 c0 -11 3 -29 8 -40 11 -25 11 1 0 35 -6 20 -8 21 -8
5z M5050 3073 c0 -5 5 -15 10 -23 8 -12 10 -11 10 8 0 12 -4 22 -10 22 -5 0
-10 -3 -10 -7z M36 2963 c-4 -32 -9 -74 -11 -93 -4 -30 -4 -31 4 -9 10 30 25
159 18 159 -3 0 -8 -26 -11 -57z M5077 2955 c3 -38 9 -79 14 -90 10 -24 1 72
-12 125 -5 24 -6 12 -2 -35z M10 2805 c0 -3 2 -5 5 -5 3 0 5 2 5 5 0 3 -2 5
-5 5 -3 0 -5 -2 -5 -5z M5102 2780 c0 -19 2 -27 5 -17 2 9 2 25 0 35 -3 9 -5
1 -5 -18z M12 2765 c0 -16 2 -22 5 -12 2 9 2 23 0 30 -3 6 -5 -1 -5 -18z
M3830 2655 c0 -3 2 -5 5 -5 3 0 5 2 5 5 0 3 -2 5 -5 5 -3 0 -5 -2 -5 -5z
M5103 2355 c0 -22 2 -30 4 -17 2 12 2 30 0 40 -3 9 -5 -1 -4 -23z M12 2355 c0
-16 2 -22 5 -12 2 9 2 23 0 30 -3 6 -5 -1 -5 -18z M10 2315 c0 -3 2 -5 5 -5 3
0 5 2 5 5 0 3 -2 5 -5 5 -3 0 -5 -2 -5 -5z M21 2265 c0 -11 6 -54 14 -95 l14
-75 -6 69 c-6 70 -21 142 -22 101z M5087 2248 c-11 -63 -19 -153 -14 -148 7 7
29 171 24 177 -3 2 -7 -11 -10 -29z M3840 2230 c0 -7 3 -10 7 -7 3 4 3 10 0
14 -4 3 -7 0 -7 -7z M3783 2093 c4 -3 10 -3 14 0 3 4 0 7 -7 7 -7 0 -10 -3 -7
-7z M50 2068 c0 -7 7 -35 15 -63 l15 -50 -7 45 c-4 25 -7 53 -7 63 0 9 -4 17
-8 17 -4 0 -8 -6 -8 -12z M1340 2075 c0 -3 2 -5 5 -5 3 0 5 2 5 5 0 3 -2 5 -5
5 -3 0 -5 -2 -5 -5z M5050 2025 c-6 -31 -10 -59 -7 -61 2 -2 9 21 16 52 7 30
11 58 8 61 -3 2 -11 -21 -17 -52z M5025 1920 c-4 -17 -5 -34 -2 -36 2 -3 7 10
11 27 8 42 0 50 -9 9z M80 1930 c0 -7 3 -10 7 -7 3 4 3 10 0 14 -4 3 -7 0 -7
-7z M1125 1920 c-3 -5 1 -10 9 -10 9 0 16 5 16 10 0 6 -4 10 -9 10 -6 0 -13
-4 -16 -10z M93 1905 c-3 -9 -3 -18 -1 -21 3 -3 8 4 11 16 6 23 -1 27 -10 5z
M106 1845 c4 -14 17 -56 30 -93 23 -62 24 -64 18 -22 -4 25 -10 47 -14 50 -5
3 -11 22 -15 43 -4 20 -11 40 -17 43 -5 3 -6 -5 -2 -21z M5010 1855 c0 -3 2
-5 5 -5 3 0 5 2 5 5 0 3 -2 5 -5 5 -3 0 -5 -2 -5 -5z M4996 1825 c4 -8 8 -15
10 -15 2 0 4 7 4 15 0 8 -4 15 -10 15 -5 0 -7 -7 -4 -15z M4986 1785 c-3 -9
-6 -22 -5 -28 0 -7 5 -1 10 12 5 13 8 26 5 28 -2 2 -6 -3 -10 -12z M4966 1725
c-3 -9 -6 -22 -5 -28 0 -7 5 -1 10 12 5 13 8 26 5 28 -2 2 -6 -3 -10 -12z
M160 1675 c0 -3 2 -5 5 -5 3 0 5 2 5 5 0 3 -2 5 -5 5 -3 0 -5 -2 -5 -5z M4946
1665 c-9 -26 -7 -32 5 -12 6 10 9 21 6 23 -2 3 -7 -2 -11 -11z M1731 1654 c0
-11 3 -14 6 -6 3 7 2 16 -1 19 -3 4 -6 -2 -5 -13z M171 1653 c0 -4 4 -17 9
-28 8 -19 9 -19 9 2 1 12 -3 25 -9 28 -5 3 -10 3 -9 -2z M4920 1645 c0 -3 2
-5 5 -5 3 0 5 2 5 5 0 3 -2 5 -5 5 -3 0 -5 -2 -5 -5z M4913 1588 c-11 -24 -23
-54 -27 -68 -3 -14 8 4 24 39 17 35 29 66 26 68 -2 2 -12 -16 -23 -39z M195
1601 c-3 -5 -1 -12 5 -16 5 -3 10 1 10 9 0 18 -6 21 -15 7z M210 1560 c0 -7 3
-10 7 -7 3 4 3 10 0 14 -4 3 -7 0 -7 -7z M224 1530 c12 -46 39 -99 48 -94 7 4
7 9 0 13 -5 3 -19 26 -31 51 -12 25 -19 38 -17 30z M4865 1476 c-21 -22 -25
-35 -14 -42 8 -4 9 -3 5 4 -4 7 -3 12 2 12 6 0 13 7 16 16 8 21 4 25 -9 10z
M280 1415 c0 -5 5 -17 10 -25 5 -8 10 -10 10 -5 0 6 -5 17 -10 25 -5 8 -10 11
-10 5z M4826 1405 c-9 -26 -7 -32 5 -12 6 10 9 21 6 23 -2 3 -7 -2 -11 -11z
M4800 1360 c0 -7 3 -10 7 -7 3 4 3 10 0 14 -4 3 -7 0 -7 -7z M310 1357 c0 -8
36 -76 67 -125 29 -46 53 -75 53 -64 0 6 -6 17 -14 24 -18 18 -51 81 -48 91 1
5 -2 6 -8 2 -5 -3 -10 -2 -10 4 0 6 -9 25 -20 43 -11 18 -20 29 -20 25z M4778
1314 c-13 -29 -35 -66 -70 -117 -11 -16 -18 -31 -15 -33 3 -3 19 19 37 48 54
88 71 120 66 126 -3 3 -11 -8 -18 -24z M4128 1284 c0 -10 0 -26 0 -34 10 -92
8 -119 -7 -123 -15 -4 -15 -5 0 -6 13 -1 15 -9 9 -46 -4 -25 -4 -45 -1 -45 9
0 0 -124 -10 -136 -5 -6 -23 -9 -41 -7 -40 4 -24 4 -193 2 -77 -1 -150 1 -162
5 -17 6 -23 3 -23 -8 0 -14 28 -16 228 -16 l227 0 -5 209 c-3 115 -8 213 -12
217 -5 4 -9 -1 -10 -12z M3546 1263 c-4 -11 -1 -22 8 -29 9 -6 16 -25 16 -42
0 -17 5 -34 10 -37 6 -3 10 -22 10 -41 0 -22 6 -37 15 -40 9 -4 15 -11 14 -18
-3 -23 1 -36 11 -36 15 0 12 36 -5 50 -8 7 -15 23 -15 36 0 14 -4 32 -10 42
-5 9 -16 43 -25 75 -17 62 -20 66 -29 40z M4111 1184 c0 -11 3 -14 6 -6 3 7 2
16 -1 19 -3 4 -6 -2 -5 -13z M444 1130 c46 -71 70 -106 83 -118 20 -20 16 1
-5 24 -28 31 -57 78 -53 89 1 6 -1 7 -5 3 -4 -4 -14 0 -22 10 -8 10 -8 7 2 -8z
M4670 1130 c-6 -11 -8 -20 -6 -20 3 0 10 9 16 20 6 11 8 20 6 20 -3 0 -10 -9
-16 -20z M4631 1077 c-13 -21 -12 -21 5 -5 10 10 16 20 13 22 -3 3 -11 -5 -18
-17z M4110 1060 c0 -7 3 -10 7 -7 3 4 3 10 0 14 -4 3 -7 0 -7 -7z M4600 1045
c0 -3 2 -5 5 -5 3 0 5 2 5 5 0 3 -2 5 -5 5 -3 0 -5 -2 -5 -5z M4585 1019 c-4
-6 -5 -12 -2 -15 2 -3 7 2 10 11 7 17 1 20 -8 4z M3644 997 c-4 -10 -2 -23 3
-28 14 -14 24 13 13 32 -7 11 -10 10 -16 -4z M4560 990 c0 -7 3 -10 7 -7 3 4
3 10 0 14 -4 3 -7 0 -7 -7z M550 985 c0 -13 162 -195 173 -195 7 0 4 7 -5 14
-10 7 -16 16 -13 19 3 4 2 5 -1 3 -3 -3 -39 34 -80 80 -41 47 -74 82 -74 79z
M4534 948 l-19 -23 23 19 c21 18 27 26 19 26 -2 0 -12 -10 -23 -22z M3670 943
c0 -12 7 -23 15 -27 13 -5 14 -2 4 17 -17 32 -19 33 -19 10z M4504 922 c3 -5
3 -12 -1 -14 -5 -1 -25 -22 -45 -45 -20 -23 -39 -39 -42 -37 -3 2 -4 1 -1 -3
3 -3 -3 -12 -13 -19 -9 -7 -12 -14 -6 -14 20 0 126 128 113 136 -7 4 -9 3 -5
-4z M736 782 c-5 -8 61 -74 168 -169 39 -35 68 -46 39 -15 -10 10 -20 17 -21
16 -2 -1 -16 9 -31 24 -15 15 -45 44 -68 64 -23 20 -38 39 -35 43 4 4 0 5 -8
3 -8 -2 -14 3 -12 10 1 6 -4 11 -10 10 -7 -2 -12 3 -10 10 2 14 -4 16 -12 4z
M4374 781 c8 -12 -29 -43 -39 -34 -4 5 -5 2 -1 -5 6 -11 13 -9 32 9 20 19 24
39 8 39 -3 0 -3 -4 0 -9z M4315 720 c-3 -5 -1 -10 4 -10 6 0 11 5 11 10 0 6
-2 10 -4 10 -3 0 -8 -4 -11 -10z M4284 686 c-3 -9 -10 -16 -15 -16 -5 0 -18
-9 -29 -20 -30 -30 -9 -24 30 9 19 16 32 32 28 36 -4 5 -10 0 -14 -9z M4175
593 c-11 -13 -32 -31 -47 -40 -15 -10 -30 -23 -32 -30 -3 -7 24 10 59 39 36
28 65 52 65 53 0 11 -30 -4 -45 -22z M960 565 c0 -3 2 -5 5 -5 3 0 5 2 5 5 0
3 -2 5 -5 5 -3 0 -5 -2 -5 -5z M980 555 c0 -3 2 -5 5 -5 3 0 5 2 5 5 0 3 -2 5
-5 5 -3 0 -5 -2 -5 -5z M1000 536 c0 -2 7 -7 16 -10 8 -3 12 -2 9 4 -6 10 -25
14 -25 6z M1040 510 c0 -7 3 -10 7 -7 3 4 3 10 0 14 -4 3 -7 0 -7 -7z M4070
515 c0 -3 2 -5 5 -5 3 0 5 2 5 5 0 3 -2 5 -5 5 -3 0 -5 -2 -5 -5z M1065 494
c23 -23 85 -64 85 -57 0 5 -10 14 -22 22 -62 38 -72 44 -63 35z M4034 484
c-18 -14 -18 -15 4 -4 12 6 22 13 22 15 0 8 -5 6 -26 -11z M3980 450 c-8 -5
-12 -12 -9 -15 4 -3 12 1 19 10 14 17 11 19 -10 5z M1163 423 c4 -3 10 -3 14
0 3 4 0 7 -7 7 -7 0 -10 -3 -7 -7z M3940 419 c0 -5 5 -7 10 -4 6 3 10 8 10 11
0 2 -4 4 -10 4 -5 0 -10 -5 -10 -11z M1195 403 c20 -19 88 -57 81 -45 -4 7
-26 22 -49 33 -23 12 -37 17 -32 12z M3875 380 c-27 -16 -46 -30 -41 -30 11 0
96 49 96 55 0 7 -2 7 -55 -25z M1315 330 c17 -11 37 -20 45 -20 8 1 -1 9 -20
20 -46 25 -63 25 -25 0z M3780 330 c-19 -11 -31 -19 -27 -20 11 0 67 29 67 35
0 7 -1 7 -40 -15z M1380 295 c0 -2 14 -11 30 -20 17 -9 30 -13 30 -10 0 4 7
-1 16 -9 8 -9 20 -16 25 -16 18 0 -20 31 -43 35 -12 3 -26 9 -32 15 -10 10
-26 14 -26 5z M3706 285 c-11 -8 -15 -15 -10 -15 6 0 19 7 30 15 10 8 15 14 9
14 -5 0 -19 -6 -29 -14z M3663 273 c-15 -5 -17 -23 -4 -23 5 0 11 7 15 15 3 8
4 15 3 14 -1 0 -8 -3 -14 -6z M3600 241 c0 -10 -69 -37 -82 -33 -5 1 -8 -3 -8
-8 0 -13 1 -13 54 10 38 16 62 40 41 40 -3 0 -5 -4 -5 -9z M3630 245 c0 -3 2
-5 5 -5 3 0 5 2 5 5 0 3 -2 5 -5 5 -3 0 -5 -2 -5 -5z M1510 235 c0 -6 48 -30
78 -39 12 -4 22 -3 22 2 0 5 -6 9 -12 9 -7 0 -30 8 -50 17 -21 9 -38 14 -38
11z M1630 180 c8 -5 20 -10 25 -10 6 0 3 5 -5 10 -8 5 -19 10 -25 10 -5 0 -3
-5 5 -10z M3470 180 c-8 -5 -10 -10 -5 -10 6 0 17 5 25 10 8 5 11 10 5 10 -5
0 -17 -5 -25 -10z M1670 165 c0 -3 2 -5 5 -5 3 0 5 2 5 5 0 3 -2 5 -5 5 -3 0
-5 -2 -5 -5z M3440 165 c0 -3 2 -5 5 -5 3 0 5 2 5 5 0 3 -2 5 -5 5 -3 0 -5 -2
-5 -5z M1698 153 c7 -3 16 -2 19 1 4 3 -2 6 -13 5 -11 0 -14 -3 -6 -6z M3375
150 c-25 -11 1 -11 35 0 20 6 21 8 5 8 -11 0 -29 -3 -40 -8z M1738 143 c7 -3
16 -2 19 1 4 3 -2 6 -13 5 -11 0 -14 -3 -6 -6z M1770 136 c0 -2 7 -7 16 -10 8
-3 12 -2 9 4 -6 10 -25 14 -25 6z M3330 129 c0 -5 5 -7 10 -4 6 3 10 8 10 11
0 2 -4 4 -10 4 -5 0 -10 -5 -10 -11z M3285 120 c-3 -5 1 -10 10 -10 9 0 13 5
10 10 -3 6 -8 10 -10 10 -2 0 -7 -4 -10 -10z M1828 113 c7 -3 16 -2 19 1 4 3
-2 6 -13 5 -11 0 -14 -3 -6 -6z M1873 103 c4 -3 10 -3 14 0 3 4 0 7 -7 7 -7 0
-10 -3 -7 -7z M3243 103 c4 -3 10 -3 14 0 3 4 0 7 -7 7 -7 0 -10 -3 -7 -7z
M1910 90 c8 -5 22 -9 30 -9 10 0 8 3 -5 9 -27 12 -43 12 -25 0z M3185 90 c-13
-5 -14 -9 -5 -9 8 0 24 4 35 9 13 5 14 9 5 9 -8 0 -24 -4 -35 -9z M1985 71
c11 -4 38 -11 60 -14 25 -4 33 -4 20 2 -11 4 -38 11 -60 14 -25 4 -33 4 -20
-2z M3110 70 c-18 -12 -2 -12 25 0 13 6 15 9 5 9 -8 0 -22 -4 -30 -9z M2995
50 c-13 -6 -15 -9 -5 -9 8 0 22 4 30 9 18 12 2 12 -25 0z M3048 53 c7 -3 16
-2 19 1 4 3 -2 6 -13 5 -11 0 -14 -3 -6 -6z M2108 43 c6 -2 18 -2 25 0 6 3 1
5 -13 5 -14 0 -19 -2 -12 -5z M2168 33 c6 -2 18 -2 25 0 6 3 1 5 -13 5 -14 0
-19 -2 -12 -5z M2230 31 c8 -5 49 -11 90 -14 69 -5 71 -5 20 3 -102 17 -126
19 -110 11z M2821 29 c-89 -11 -100 -20 -16 -13 39 4 77 10 85 15 17 9 18 9
-69 -2z M2928 33 c6 -2 18 -2 25 0 6 3 1 5 -13 5 -14 0 -19 -2 -12 -5z" />
    </g>
</svg>