<?xml version="1.0" encoding="UTF-8"?>
<svg xmlns="http://www.w3.org/2000/svg" xmlns:xlink="http://www.w3.org/1999/xlink" width="75px" height="75px" viewBox="0 0 75 70" version="1.1">
<defs>
<linearGradient id="linear0" gradientUnits="userSpaceOnUse" x1="353.1" y1="56.3" x2="107.1" y2="783" gradientTransform="matrix(0.0936459,0,0,0.092627,0.0421407,0.0337606)">
<stop offset="0" style="stop-color:rgb(6.666667%,29.019608%,54.509804%);stop-opacity:1;"/>
<stop offset="1" style="stop-color:rgb(2.352941%,41.176471%,73.72549%);stop-opacity:1;"/>
</linearGradient>
<linearGradient id="linear1" gradientUnits="userSpaceOnUse" x1="429.8" y1="394.9" x2="372.9" y2="414.2" gradientTransform="matrix(0.0936459,0,0,0.092627,0.0421407,0.0337606)">
<stop offset="0" style="stop-color:rgb(0%,0%,0%);stop-opacity:0.301961;"/>
<stop offset="0.1" style="stop-color:rgb(0%,0%,0%);stop-opacity:0.2;"/>
<stop offset="0.3" style="stop-color:rgb(0%,0%,0%);stop-opacity:0.101961;"/>
<stop offset="0.6" style="stop-color:rgb(0%,0%,0%);stop-opacity:0.101961;"/>
<stop offset="1" style="stop-color:rgb(0%,0%,0%);stop-opacity:0;"/>
</linearGradient>
<linearGradient id="linear2" gradientUnits="userSpaceOnUse" x1="398.4" y1="35.1" x2="668.4" y2="754.4" gradientTransform="matrix(0.0936459,0,0,0.092627,0.0421407,0.0337606)">
<stop offset="0" style="stop-color:rgb(23.529412%,79.607843%,95.686275%);stop-opacity:1;"/>
<stop offset="1" style="stop-color:rgb(15.686275%,57.254902%,87.45098%);stop-opacity:1;"/>
</linearGradient>
</defs>
<g id="surface1">
<path style=" stroke:none;fill-rule:nonzero;fill:url(#linear0);" d="M 25.019531 0.0703125 L 47.183594 0.0703125 L 24.171875 67.550781 C 24.054688 67.894531 23.886719 68.21875 23.667969 68.511719 C 23.449219 68.804688 23.183594 69.058594 22.886719 69.273438 C 22.585938 69.484375 22.257812 69.648438 21.90625 69.761719 C 21.558594 69.871094 21.191406 69.929688 20.824219 69.929688 L 3.574219 69.929688 C 3.011719 69.929688 2.460938 69.796875 1.960938 69.542969 C 1.464844 69.289062 1.035156 68.921875 0.707031 68.472656 C 0.378906 68.023438 0.167969 67.5 0.0820312 66.953125 C 0 66.40625 0.0507812 65.84375 0.230469 65.320312 L 21.667969 2.449219 C 21.785156 2.105469 21.957031 1.78125 22.175781 1.488281 C 22.394531 1.195312 22.660156 0.9375 22.957031 0.726562 C 23.253906 0.511719 23.585938 0.347656 23.933594 0.238281 C 24.285156 0.125 24.652344 0.0703125 25.015625 0.0703125 Z M 25.019531 0.0703125 "/>
<path style=" stroke:none;fill-rule:nonzero;fill:rgb(0%,47.058824%,83.137255%);fill-opacity:1;" d="M 65.882812 69.929688 L 45.976562 69.929688 C 45.753906 69.929688 45.535156 69.910156 45.3125 69.867188 C 45.097656 69.828125 44.882812 69.765625 44.675781 69.683594 C 44.46875 69.605469 44.269531 69.503906 44.082031 69.386719 C 43.894531 69.269531 43.714844 69.136719 43.554688 68.984375 L 20.964844 48.121094 C 20.726562 47.898438 20.5625 47.613281 20.488281 47.296875 C 20.339844 46.652344 20.605469 45.984375 21.160156 45.609375 C 21.429688 45.429688 21.75 45.332031 22.078125 45.332031 L 57.226562 45.332031 L 65.878906 69.929688 Z M 65.882812 69.929688 "/>
<path style=" stroke:none;fill-rule:nonzero;fill:url(#linear1);" d="M 47.265625 0.0703125 L 31.746094 45.335938 L 57.101562 45.332031 L 65.796875 69.929688 L 45.96875 69.929688 C 45.765625 69.925781 45.558594 69.910156 45.355469 69.871094 C 45.152344 69.835938 44.957031 69.785156 44.761719 69.714844 C 44.375 69.574219 44.015625 69.371094 43.699219 69.109375 L 28.453125 55.035156 L 24.183594 67.484375 C 24.074219 67.796875 23.921875 68.09375 23.730469 68.363281 C 23.351562 68.910156 22.835938 69.347656 22.230469 69.628906 C 21.925781 69.769531 21.609375 69.871094 21.28125 69.929688 L 3.582031 69.929688 C 3.019531 69.929688 2.460938 69.796875 1.957031 69.539062 C 0.9375 69.019531 0.238281 68.035156 0.0820312 66.910156 C 0.0078125 66.355469 0.0664062 65.789062 0.257812 65.261719 L 21.664062 2.496094 C 21.773438 2.144531 21.941406 1.8125 22.160156 1.515625 C 22.375 1.21875 22.640625 0.953125 22.9375 0.738281 C 23.238281 0.519531 23.570312 0.351562 23.925781 0.238281 C 24.277344 0.125 24.648438 0.0703125 25.019531 0.0703125 Z M 47.265625 0.0703125 "/>
<path style=" stroke:none;fill-rule:nonzero;fill:url(#linear2);" d="M 74.769531 65.320312 C 74.949219 65.84375 75 66.40625 74.917969 66.953125 C 74.835938 67.5 74.621094 68.023438 74.296875 68.472656 C 73.632812 69.386719 72.566406 69.929688 71.429688 69.929688 L 46.722656 69.929688 C 47.28125 69.929688 47.835938 69.796875 48.335938 69.542969 C 48.832031 69.289062 49.261719 68.921875 49.589844 68.472656 C 49.917969 68.023438 50.128906 67.5 50.214844 66.953125 C 50.296875 66.40625 50.246094 65.84375 50.066406 65.320312 L 28.628906 2.445312 C 28.390625 1.753906 27.941406 1.152344 27.34375 0.726562 C 27.042969 0.511719 26.714844 0.351562 26.363281 0.238281 C 26.015625 0.128906 25.652344 0.0703125 25.285156 0.0703125 L 49.988281 0.0703125 C 50.355469 0.0703125 50.71875 0.128906 51.070312 0.238281 C 51.421875 0.351562 51.75 0.515625 52.046875 0.726562 C 52.347656 0.9375 52.609375 1.195312 52.828125 1.484375 C 53.046875 1.777344 53.214844 2.101562 53.335938 2.445312 L 74.773438 65.320312 Z M 74.769531 65.320312 "/>
</g>
</svg>
