<?xml version="1.0" encoding="UTF-8"?>
<svg xmlns="http://www.w3.org/2000/svg" xmlns:xlink="http://www.w3.org/1999/xlink" width="75px" height="75px" viewBox="0 0 75 72" version="1.1">
<g id="surface1">
<path style=" stroke:none;fill-rule:nonzero;fill:rgb(8.627451%,8.627451%,7.843137%);fill-opacity:1;" d="M 37.355469 0 C 16.726562 0 0 16.503906 0 36.863281 C 0 53.152344 10.703125 66.96875 25.546875 71.84375 C 27.414062 72.183594 28.097656 71.042969 28.097656 70.070312 C 28.097656 69.191406 28.0625 66.285156 28.046875 63.207031 C 17.65625 65.4375 15.460938 58.855469 15.460938 58.855469 C 13.761719 54.597656 11.316406 53.464844 11.316406 53.464844 C 7.925781 51.175781 11.570312 51.222656 11.570312 51.222656 C 15.320312 51.484375 17.296875 55.019531 17.296875 55.019531 C 20.628906 60.65625 26.035156 59.027344 28.167969 58.085938 C 28.5 55.703125 29.46875 54.078125 30.539062 53.15625 C 22.242188 52.222656 13.519531 49.0625 13.519531 34.9375 C 13.519531 30.914062 14.976562 27.625 17.367188 25.042969 C 16.980469 24.113281 15.703125 20.367188 17.730469 15.289062 C 17.730469 15.289062 20.867188 14.296875 28.003906 19.066406 C 30.984375 18.25 34.179688 17.839844 37.355469 17.828125 C 40.53125 17.839844 43.726562 18.25 46.714844 19.066406 C 53.84375 14.296875 56.976562 15.289062 56.976562 15.289062 C 59.007812 20.367188 57.730469 24.113281 57.339844 25.042969 C 59.738281 27.625 61.1875 30.914062 61.1875 34.9375 C 61.1875 49.097656 52.445312 52.214844 44.128906 53.128906 C 45.46875 54.269531 46.664062 56.515625 46.664062 59.953125 C 46.664062 64.886719 46.621094 68.855469 46.621094 70.070312 C 46.621094 71.050781 47.292969 72.199219 49.1875 71.839844 C 64.019531 66.957031 74.710938 53.144531 74.710938 36.863281 C 74.710938 16.503906 57.984375 0 37.355469 0 "/>
<path style=" stroke:none;fill-rule:nonzero;fill:rgb(8.627451%,8.627451%,7.843137%);fill-opacity:1;" d="M 13.992188 52.511719 C 13.910156 52.695312 13.617188 52.75 13.351562 52.625 C 13.078125 52.503906 12.925781 52.253906 13.015625 52.070312 C 13.09375 51.882812 13.386719 51.832031 13.660156 51.957031 C 13.929688 52.078125 14.085938 52.328125 13.992188 52.511719 M 15.828125 54.128906 C 15.648438 54.292969 15.300781 54.21875 15.066406 53.960938 C 14.820312 53.703125 14.773438 53.359375 14.957031 53.195312 C 15.140625 53.03125 15.476562 53.109375 15.722656 53.363281 C 15.96875 53.625 16.015625 53.964844 15.828125 54.132812 M 17.089844 56.199219 C 16.859375 56.359375 16.484375 56.210938 16.253906 55.882812 C 16.023438 55.554688 16.023438 55.160156 16.257812 55.003906 C 16.492188 54.847656 16.859375 54.988281 17.09375 55.3125 C 17.324219 55.648438 17.324219 56.039062 17.089844 56.199219 M 19.21875 58.597656 C 19.015625 58.820312 18.578125 58.761719 18.261719 58.457031 C 17.933594 58.160156 17.84375 57.738281 18.046875 57.515625 C 18.253906 57.292969 18.695312 57.355469 19.015625 57.65625 C 19.339844 57.953125 19.4375 58.378906 19.222656 58.597656 M 21.976562 59.40625 C 21.886719 59.695312 21.464844 59.828125 21.042969 59.707031 C 20.621094 59.578125 20.34375 59.242188 20.429688 58.949219 C 20.515625 58.660156 20.9375 58.523438 21.363281 58.652344 C 21.785156 58.777344 22.0625 59.113281 21.976562 59.40625 M 25.113281 59.75 C 25.121094 60.054688 24.761719 60.308594 24.320312 60.3125 C 23.871094 60.324219 23.511719 60.078125 23.507812 59.777344 C 23.507812 59.46875 23.855469 59.21875 24.304688 59.214844 C 24.746094 59.203125 25.113281 59.449219 25.113281 59.75 M 28.191406 59.632812 C 28.246094 59.929688 27.9375 60.234375 27.496094 60.316406 C 27.0625 60.394531 26.660156 60.210938 26.605469 59.917969 C 26.550781 59.613281 26.867188 59.308594 27.296875 59.230469 C 27.742188 59.15625 28.136719 59.332031 28.191406 59.632812 "/>
</g>
</svg>
