<?xml version="1.0" encoding="UTF-8"?>
<svg xmlns="http://www.w3.org/2000/svg" xmlns:xlink="http://www.w3.org/1999/xlink" width="75px" height="75px" viewBox="0 0 75 139" version="1.1">
<g id="surface1">
<path style=" stroke:none;fill-rule:nonzero;fill:rgb(90.588235%,43.529412%,0%);fill-opacity:1;" d="M 71.839844 109.605469 L 71.316406 109.605469 L 71.316406 109.3125 L 72.730469 109.3125 L 72.730469 109.605469 L 72.207031 109.605469 L 72.207031 111.070312 L 71.839844 111.070312 Z M 74.664062 109.683594 L 74.652344 109.683594 L 74.132812 111.070312 L 73.894531 111.070312 L 73.378906 109.683594 L 73.371094 109.683594 L 73.371094 111.070312 L 73.023438 111.070312 L 73.023438 109.316406 L 73.535156 109.316406 L 74.015625 110.558594 L 74.492188 109.316406 L 75 109.316406 L 75 111.070312 L 74.660156 111.070312 Z M 74.664062 109.683594 "/>
<path style=" stroke:none;fill-rule:nonzero;fill:rgb(32.54902%,50.980392%,63.137255%);fill-opacity:1;" d="M 24.796875 73.730469 C 24.796875 73.730469 21.140625 75.851562 27.398438 76.566406 C 34.980469 77.429688 38.855469 77.304688 47.210938 75.730469 C 47.210938 75.730469 49.40625 77.101562 52.476562 78.292969 C 33.746094 86.289062 10.085938 77.828125 24.796875 73.730469 M 22.507812 63.296875 C 22.507812 63.296875 18.40625 66.320312 24.667969 66.964844 C 32.769531 67.796875 39.164062 67.867188 50.234375 65.742188 C 50.234375 65.742188 51.761719 67.289062 54.171875 68.132812 C 31.523438 74.730469 6.300781 68.65625 22.507812 63.296875 "/>
<path style=" stroke:none;fill-rule:nonzero;fill:rgb(90.588235%,43.529412%,0%);fill-opacity:1;" d="M 41.800781 45.589844 C 46.417969 50.882812 40.589844 55.648438 40.589844 55.648438 C 40.589844 55.648438 52.308594 49.621094 46.925781 42.074219 C 41.898438 35.035156 38.046875 31.539062 58.914062 19.480469 C 58.914062 19.480469 26.15625 27.628906 41.800781 45.589844 "/>
<path style=" stroke:none;fill-rule:nonzero;fill:rgb(32.54902%,50.980392%,63.137255%);fill-opacity:1;" d="M 66.574219 81.453125 C 66.574219 81.453125 69.28125 83.671875 63.59375 85.390625 C 52.785156 88.65625 18.597656 89.640625 9.101562 85.523438 C 5.6875 84.042969 12.089844 81.988281 14.101562 81.558594 C 16.203125 81.105469 17.402344 81.1875 17.402344 81.1875 C 13.605469 78.523438 -7.136719 86.421875 6.867188 88.683594 C 45.054688 94.851562 76.480469 85.902344 66.574219 81.453125 M 26.554688 52.480469 C 26.554688 52.480469 9.164062 56.597656 20.398438 58.089844 C 25.140625 58.722656 34.59375 58.582031 43.398438 57.84375 C 50.59375 57.242188 57.820312 55.953125 57.820312 55.953125 C 57.820312 55.953125 55.285156 57.039062 53.449219 58.285156 C 35.789062 62.914062 1.675781 60.761719 11.496094 56.027344 C 19.800781 52.027344 26.554688 52.480469 26.554688 52.480469 M 57.75 69.855469 C 75.699219 60.558594 67.402344 51.628906 61.605469 52.832031 C 60.1875 53.125 59.554688 53.382812 59.554688 53.382812 C 59.554688 53.382812 60.082031 52.558594 61.085938 52.203125 C 72.546875 48.1875 81.363281 64.042969 57.386719 70.324219 C 57.386719 70.324219 57.667969 70.074219 57.75 69.855469 "/>
<path style=" stroke:none;fill-rule:nonzero;fill:rgb(90.588235%,43.529412%,0%);fill-opacity:1;" d="M 46.925781 0.0078125 C 46.925781 0.0078125 56.867188 9.917969 37.496094 25.152344 C 21.964844 37.375 33.957031 44.34375 37.492188 52.308594 C 28.425781 44.15625 21.769531 36.980469 26.234375 30.304688 C 32.785156 20.5 50.9375 15.75 46.925781 0.0078125 "/>
<path style=" stroke:none;fill-rule:nonzero;fill:rgb(32.54902%,50.980392%,63.137255%);fill-opacity:1;" d="M 28.320312 95.039062 C 45.550781 96.136719 72.007812 94.429688 72.636719 86.304688 C 72.636719 86.304688 71.429688 89.386719 58.394531 91.832031 C 43.6875 94.589844 25.550781 94.265625 14.792969 92.5 C 14.792969 92.5 16.996094 94.316406 28.320312 95.039062 "/>
<path style=" stroke:none;fill-rule:nonzero;fill:rgb(90.588235%,43.529412%,0%);fill-opacity:1;" d="M 25.496094 126.078125 C 23.871094 127.484375 22.152344 128.269531 20.613281 128.269531 C 18.414062 128.269531 17.226562 126.957031 17.226562 124.851562 C 17.226562 122.570312 18.5 120.90625 23.605469 120.90625 L 25.496094 120.90625 L 25.496094 126.078125 M 29.980469 131.121094 L 29.980469 115.511719 C 29.980469 111.527344 27.699219 108.894531 22.195312 108.894531 C 18.984375 108.894531 16.167969 109.683594 13.882812 110.691406 L 14.542969 113.457031 C 16.34375 112.796875 18.671875 112.183594 20.960938 112.183594 C 24.132812 112.183594 25.496094 113.457031 25.496094 116.085938 L 25.496094 118.058594 L 23.914062 118.058594 C 16.210938 118.058594 12.738281 121.035156 12.738281 125.507812 C 12.738281 129.367188 15.027344 131.558594 19.335938 131.558594 C 22.109375 131.558594 24.175781 130.417969 26.109375 128.75 L 26.460938 131.121094 Z M 44.949219 131.121094 L 39.355469 131.121094 L 32.621094 109.289062 L 37.507812 109.289062 L 41.683594 122.703125 L 42.613281 126.734375 C 44.726562 120.902344 46.222656 114.988281 46.96875 109.289062 L 51.722656 109.289062 C 50.449219 116.476562 48.15625 124.367188 44.949219 131.121094 M 66.40625 126.078125 C 64.78125 127.484375 63.058594 128.269531 61.519531 128.269531 C 59.324219 128.269531 58.132812 126.957031 58.132812 124.851562 C 58.132812 122.570312 59.410156 120.90625 64.515625 120.90625 L 66.40625 120.90625 L 66.40625 126.078125 M 70.890625 131.121094 L 70.890625 115.511719 C 70.890625 111.527344 68.605469 108.894531 63.109375 108.894531 C 59.894531 108.894531 57.078125 109.683594 54.792969 110.691406 L 55.453125 113.457031 C 57.253906 112.796875 59.589844 112.183594 61.875 112.183594 C 65.042969 112.183594 66.40625 113.457031 66.40625 116.085938 L 66.40625 118.058594 L 64.824219 118.058594 C 57.117188 118.058594 53.644531 121.035156 53.644531 125.507812 C 53.644531 129.367188 55.933594 131.558594 60.242188 131.558594 C 63.015625 131.558594 65.085938 130.417969 67.019531 128.75 L 67.375 131.121094 Z M 7.820312 134.828125 C 6.539062 136.6875 4.476562 138.160156 2.214844 138.992188 L 0 136.394531 C 1.722656 135.515625 3.195312 134.09375 3.882812 132.769531 C 4.476562 131.59375 4.722656 130.078125 4.722656 126.449219 L 4.722656 101.527344 L 9.484375 101.527344 L 9.484375 126.105469 C 9.484375 130.957031 9.097656 132.917969 7.820312 134.828125 "/>
</g>
</svg>
