<?xml version="1.0" encoding="UTF-8"?>
<svg xmlns="http://www.w3.org/2000/svg" xmlns:xlink="http://www.w3.org/1999/xlink" width="75px" height="75px" viewBox="0 0 75 75" version="1.1">
<g id="surface1">
<path style=" stroke:none;fill-rule:nonzero;fill:rgb(34.901961%,58.823529%,21.176471%);fill-opacity:1;" d="M 34.515625 9.75 L 36.140625 12.804688 C 36.507812 13.367188 36.902344 13.867188 37.367188 14.328125 C 38.734375 15.679688 40.011719 17.121094 41.183594 18.644531 C 43.9375 22.257812 45.792969 26.273438 47.121094 30.617188 C 47.917969 33.269531 48.347656 35.992188 48.382812 38.746094 C 48.515625 46.972656 45.695312 54.039062 40.007812 59.910156 C 39.082031 60.839844 38.082031 61.695312 37.019531 62.464844 C 36.457031 62.464844 36.1875 62.03125 35.957031 61.632812 C 35.535156 60.894531 35.253906 60.085938 35.125 59.246094 C 34.925781 58.25 34.796875 57.253906 34.859375 56.226562 L 34.859375 55.761719 C 34.816406 55.664062 34.316406 9.984375 34.515625 9.75 Z M 34.515625 9.75 "/>
<path style=" stroke:none;fill-rule:nonzero;fill:rgb(42.352941%,67.45098%,28.235294%);fill-opacity:1;" d="M 34.515625 9.648438 C 34.449219 9.515625 34.382812 9.617188 34.316406 9.683594 C 34.347656 10.347656 34.117188 10.941406 33.753906 11.507812 C 33.351562 12.074219 32.824219 12.503906 32.292969 12.96875 C 29.34375 15.523438 27.019531 18.609375 25.160156 22.058594 C 22.6875 26.703125 21.410156 31.679688 21.050781 36.917969 C 20.882812 38.808594 21.648438 45.480469 22.242188 47.402344 C 23.867188 52.511719 26.789062 56.792969 30.570312 60.507812 C 31.5 61.402344 32.492188 62.230469 33.519531 63.027344 C 33.820312 63.027344 33.851562 62.761719 33.921875 62.5625 C 34.050781 62.140625 34.152344 61.707031 34.21875 61.269531 L 34.886719 56.292969 Z M 34.515625 9.648438 "/>
<path style=" stroke:none;fill-rule:nonzero;fill:rgb(76.078431%,74.901961%,74.901961%);fill-opacity:1;" d="M 36.140625 64.484375 C 36.207031 63.722656 36.574219 63.089844 36.972656 62.460938 C 36.570312 62.296875 36.273438 61.964844 36.042969 61.597656 C 35.84375 61.25 35.675781 60.886719 35.546875 60.503906 C 35.082031 59.113281 34.984375 57.648438 34.851562 56.226562 L 34.851562 55.363281 C 34.683594 55.496094 34.652344 56.625 34.652344 56.792969 C 34.554688 58.296875 34.355469 59.792969 34.054688 61.269531 C 33.953125 61.867188 33.886719 62.464844 33.519531 62.996094 C 33.519531 63.0625 33.519531 63.128906 33.550781 63.226562 C 34.148438 64.984375 34.3125 66.777344 34.414062 68.601562 L 34.414062 69.265625 C 34.414062 70.0625 34.382812 69.894531 35.042969 70.160156 C 35.308594 70.261719 35.605469 70.296875 35.871094 70.492188 C 36.074219 70.492188 36.105469 70.328125 36.105469 70.195312 L 36.007812 69.101562 L 36.007812 66.046875 C 35.972656 65.515625 36.074219 64.984375 36.140625 64.488281 Z M 36.140625 64.484375 "/>
</g>
</svg>
