<?xml version="1.0" encoding="UTF-8"?>
<svg xmlns="http://www.w3.org/2000/svg" xmlns:xlink="http://www.w3.org/1999/xlink" width="75px" height="75px" viewBox="0 0 75 73" version="1.1">
<g id="surface1">
<path style=" stroke:none;fill-rule:nonzero;fill:rgb(0%,32.941176%,41.960784%);fill-opacity:1;" d="M 69.039062 56.257812 C 64.960938 56.15625 61.800781 56.5625 59.148438 57.667969 C 58.382812 57.972656 57.160156 57.972656 57.058594 58.929688 C 57.46875 59.332031 57.519531 59.988281 57.875 60.542969 C 58.488281 61.550781 59.558594 62.910156 60.523438 63.617188 C 61.59375 64.421875 62.667969 65.230469 63.789062 65.933594 C 65.773438 67.144531 68.019531 67.851562 69.953125 69.058594 C 71.078125 69.765625 72.199219 70.671875 73.320312 71.429688 C 73.878906 71.832031 74.234375 72.488281 74.949219 72.738281 L 74.949219 72.585938 C 74.59375 72.132812 74.492188 71.480469 74.132812 70.976562 C 73.625 70.472656 73.113281 70.015625 72.605469 69.511719 C 71.128906 67.546875 69.292969 65.835938 67.304688 64.421875 C 65.671875 63.3125 62.105469 61.800781 61.441406 59.9375 C 61.441406 59.9375 61.390625 59.886719 61.339844 59.835938 C 62.460938 59.734375 63.789062 59.332031 64.859375 59.03125 C 66.589844 58.578125 68.171875 58.679688 69.953125 58.222656 C 70.769531 58.023438 71.585938 57.769531 72.402344 57.519531 L 72.402344 57.066406 C 71.484375 56.15625 70.820312 54.949219 69.851562 54.089844 C 67.253906 51.875 64.398438 49.707031 61.441406 47.890625 C 59.863281 46.882812 57.824219 46.230469 56.140625 45.371094 C 55.53125 45.070312 54.511719 44.917969 54.152344 44.414062 C 53.234375 43.304688 52.726562 41.84375 52.0625 40.535156 C 50.585938 37.761719 49.160156 34.6875 47.882812 31.765625 C 46.96875 29.800781 46.40625 27.835938 45.285156 26.019531 C 40.035156 17.453125 34.328125 12.261719 25.558594 7.171875 C 23.671875 6.113281 21.429688 5.660156 19.035156 5.105469 C 17.761719 5.054688 16.488281 4.953125 15.210938 4.902344 C 14.398438 4.550781 13.582031 3.59375 12.867188 3.140625 C 9.960938 1.324219 2.46875 -2.605469 0.328125 2.585938 C -1.046875 5.859375 2.367188 9.085938 3.539062 10.75 C 4.40625 11.910156 5.527344 13.21875 6.140625 14.527344 C 6.496094 15.386719 6.597656 16.292969 6.953125 17.199219 C 7.769531 19.417969 8.535156 21.886719 9.605469 23.953125 C 10.167969 25.011719 10.777344 26.121094 11.492188 27.078125 C 11.898438 27.632812 12.613281 27.882812 12.765625 28.792969 C 12.050781 29.800781 12 31.3125 11.59375 32.570312 C 9.757812 38.265625 10.472656 45.324219 13.070312 49.503906 C 13.886719 50.765625 15.824219 53.539062 18.421875 52.480469 C 20.71875 51.570312 20.207031 48.699219 20.871094 46.179688 C 21.023438 45.574219 20.921875 45.171875 21.226562 44.769531 L 21.226562 44.867188 C 21.941406 46.28125 22.652344 47.640625 23.316406 49.050781 C 24.898438 51.519531 27.648438 54.089844 29.941406 55.804688 C 31.167969 56.710938 32.132812 58.273438 33.664062 58.828125 L 33.664062 58.675781 L 33.5625 58.675781 C 33.253906 58.222656 32.796875 58.023438 32.390625 57.667969 C 31.472656 56.761719 30.453125 55.652344 29.738281 54.644531 C 27.597656 51.824219 25.710938 48.699219 24.03125 45.472656 C 23.214844 43.910156 22.5 42.199219 21.839844 40.636719 C 21.53125 40.03125 21.53125 39.125 21.023438 38.820312 C 20.257812 39.929688 19.136719 40.886719 18.578125 42.246094 C 17.609375 44.414062 17.507812 47.085938 17.148438 49.859375 C 16.945312 49.910156 17.046875 49.859375 16.945312 49.960938 C 15.3125 49.554688 14.753906 47.890625 14.140625 46.480469 C 12.613281 42.902344 12.355469 37.15625 13.683594 33.023438 C 14.039062 31.96875 15.570312 28.640625 14.957031 27.632812 C 14.652344 26.675781 13.632812 26.121094 13.070312 25.363281 C 12.410156 24.40625 11.695312 23.199219 11.238281 22.140625 C 10.011719 19.316406 9.402344 16.191406 8.078125 13.371094 C 7.464844 12.058594 6.394531 10.699219 5.527344 9.488281 C 4.558594 8.128906 3.488281 7.171875 2.722656 5.558594 C 2.46875 5.003906 2.113281 4.097656 2.519531 3.492188 C 2.621094 3.089844 2.824219 2.9375 3.234375 2.835938 C 3.898438 2.28125 5.78125 2.988281 6.445312 3.289062 C 8.332031 4.046875 9.910156 4.753906 11.492188 5.808594 C 12.203125 6.3125 12.96875 7.273438 13.886719 7.523438 L 14.957031 7.523438 C 16.589844 7.875 18.421875 7.625 19.953125 8.078125 C 22.652344 8.933594 25.101562 10.195312 27.292969 11.554688 C 33.96875 15.738281 39.472656 21.6875 43.195312 28.792969 C 43.808594 29.949219 44.0625 31.007812 44.621094 32.21875 C 45.691406 34.6875 47.019531 37.207031 48.089844 39.628906 C 49.160156 41.996094 50.179688 44.414062 51.707031 46.378906 C 52.472656 47.4375 55.53125 47.992188 56.90625 48.546875 C 57.925781 49 59.507812 49.40625 60.421875 49.957031 C 62.15625 51.015625 63.890625 52.226562 65.519531 53.386719 C 66.335938 53.992188 68.882812 55.25 69.039062 56.257812 Z M 69.039062 56.257812 "/>
<path style=" stroke:none;fill-rule:nonzero;fill:rgb(0%,32.941176%,41.960784%);fill-opacity:1;" d="M 17.046875 12.460938 C 16.179688 12.460938 15.570312 12.5625 14.957031 12.714844 L 14.957031 12.816406 L 15.058594 12.816406 C 15.46875 13.621094 16.179688 14.175781 16.691406 14.882812 C 17.097656 15.6875 17.453125 16.496094 17.863281 17.300781 C 17.914062 17.25 17.964844 17.199219 17.964844 17.199219 C 18.679688 16.695312 19.035156 15.890625 19.035156 14.679688 C 18.730469 14.328125 18.679688 13.976562 18.421875 13.621094 C 18.117188 13.117188 17.453125 12.867188 17.046875 12.460938 Z M 17.046875 12.460938 "/>
</g>
</svg>
