<?xml version="1.0" encoding="UTF-8"?>
<svg xmlns="http://www.w3.org/2000/svg" xmlns:xlink="http://www.w3.org/1999/xlink" width="75px" height="75px" viewBox="0 0 75 75" version="1.1">
<g id="surface1">
<path style=" stroke:none;fill-rule:nonzero;fill:rgb(0%,0%,0%);fill-opacity:1;" d="M 35.046875 0.0585938 C 34.886719 0.0742188 34.371094 0.125 33.910156 0.160156 C 23.269531 1.121094 13.304688 6.863281 6.992188 15.6875 C 3.476562 20.59375 1.226562 26.160156 0.378906 32.054688 C 0.078125 34.113281 0.0390625 34.722656 0.0390625 37.511719 C 0.0390625 40.300781 0.078125 40.910156 0.378906 42.96875 C 2.414062 57.035156 12.425781 68.855469 26.003906 73.234375 C 28.433594 74.019531 30.996094 74.554688 33.910156 74.875 C 35.046875 75 39.953125 75 41.089844 74.875 C 46.121094 74.320312 50.382812 73.074219 54.585938 70.929688 C 55.230469 70.597656 55.355469 70.511719 55.265625 70.4375 C 55.207031 70.394531 52.460938 66.710938 49.167969 62.257812 L 43.175781 54.164062 L 35.667969 43.054688 C 31.539062 36.945312 28.140625 31.953125 28.109375 31.953125 C 28.082031 31.945312 28.050781 36.882812 28.039062 42.910156 C 28.015625 53.460938 28.007812 53.886719 27.875 54.136719 C 27.6875 54.496094 27.539062 54.640625 27.234375 54.800781 C 27 54.917969 26.792969 54.941406 25.6875 54.941406 L 24.421875 54.941406 L 24.082031 54.730469 C 23.863281 54.589844 23.703125 54.40625 23.59375 54.195312 L 23.4375 53.863281 L 23.453125 39.179688 L 23.476562 24.488281 L 23.703125 24.203125 C 23.820312 24.050781 24.070312 23.851562 24.246094 23.757812 C 24.542969 23.609375 24.660156 23.597656 25.929688 23.597656 C 27.421875 23.597656 27.671875 23.65625 28.058594 24.078125 C 28.167969 24.195312 32.234375 30.320312 37.097656 37.695312 C 41.960938 45.070312 48.609375 55.136719 51.875 60.082031 L 57.808594 69.066406 L 58.109375 68.871094 C 60.765625 67.140625 63.578125 64.679688 65.804688 62.117188 C 70.542969 56.675781 73.597656 50.042969 74.621094 42.96875 C 74.921875 40.910156 74.960938 40.300781 74.960938 37.511719 C 74.960938 34.722656 74.921875 34.113281 74.621094 32.054688 C 72.585938 17.988281 62.574219 6.167969 48.996094 1.785156 C 46.601562 1.011719 44.054688 0.476562 41.199219 0.152344 C 40.496094 0.0820312 35.65625 0 35.046875 0.0585938 Z M 50.382812 22.71875 C 50.734375 22.894531 51.019531 23.230469 51.121094 23.582031 C 51.179688 23.773438 51.195312 27.84375 51.179688 37.019531 L 51.160156 50.1875 L 48.835938 46.628906 L 46.507812 43.070312 L 46.507812 33.496094 C 46.507812 27.308594 46.539062 23.832031 46.582031 23.664062 C 46.699219 23.253906 46.953125 22.929688 47.304688 22.738281 C 47.605469 22.585938 47.714844 22.570312 48.867188 22.570312 C 49.949219 22.570312 50.140625 22.585938 50.382812 22.71875 Z M 50.382812 22.71875 "/>
<path style=" stroke:none;fill-rule:nonzero;fill:rgb(0%,0%,0%);fill-opacity:1;" d="M 57.441406 69.230469 C 57.1875 69.390625 57.105469 69.5 57.332031 69.375 C 57.492188 69.28125 57.757812 69.082031 57.710938 69.074219 C 57.691406 69.074219 57.566406 69.148438 57.441406 69.230469 Z M 56.9375 69.558594 C 56.804688 69.660156 56.804688 69.667969 56.964844 69.589844 C 57.054688 69.542969 57.128906 69.492188 57.128906 69.476562 C 57.128906 69.417969 57.089844 69.433594 56.9375 69.558594 Z M 56.570312 69.777344 C 56.4375 69.882812 56.4375 69.886719 56.601562 69.808594 C 56.6875 69.765625 56.761719 69.710938 56.761719 69.699219 C 56.761719 69.640625 56.722656 69.652344 56.570312 69.777344 Z M 56.203125 70 C 56.074219 70.101562 56.074219 70.109375 56.234375 70.027344 C 56.320312 69.984375 56.394531 69.933594 56.394531 69.917969 C 56.394531 69.859375 56.359375 69.875 56.203125 70 Z M 55.648438 70.289062 C 55.371094 70.4375 55.382812 70.496094 55.664062 70.355469 C 55.785156 70.289062 55.882812 70.226562 55.882812 70.210938 C 55.882812 70.160156 55.875 70.167969 55.648438 70.289062 Z M 55.648438 70.289062 "/>
</g>
</svg>
