<?xml version="1.0" encoding="UTF-8"?>
<svg xmlns="http://www.w3.org/2000/svg" xmlns:xlink="http://www.w3.org/1999/xlink" width="75px" height="75px" viewBox="0 0 75 92" version="1.1">
<g id="surface1">
<path style=" stroke:none;fill-rule:nonzero;fill:rgb(0%,83.137255%,52.54902%);fill-opacity:1;" d="M 37.503906 88.234375 C 36.363281 88.234375 35.242188 87.933594 34.253906 87.367188 L 23.910156 81.273438 C 22.367188 80.414062 23.121094 80.109375 23.628906 79.929688 C 25.273438 79.425781 26.84375 78.71875 28.308594 77.828125 C 28.558594 77.710938 28.851562 77.734375 29.078125 77.882812 L 37.027344 82.582031 C 37.328125 82.742188 37.6875 82.742188 37.984375 82.582031 L 68.972656 64.777344 C 69.269531 64.601562 69.449219 64.28125 69.449219 63.941406 L 69.449219 28.320312 C 69.449219 27.972656 69.265625 27.652344 68.96875 27.46875 L 37.980469 9.679688 C 37.683594 9.511719 37.320312 9.511719 37.023438 9.679688 L 6.050781 27.476562 C 5.753906 27.652344 5.566406 27.972656 5.5625 28.320312 L 5.5625 63.925781 C 5.5625 64.265625 5.75 64.582031 6.050781 64.75 L 14.546875 69.632812 C 19.15625 71.925781 21.976562 69.222656 21.976562 66.511719 L 21.976562 31.359375 C 21.976562 30.859375 22.382812 30.457031 22.882812 30.457031 L 26.808594 30.457031 C 27.308594 30.457031 27.714844 30.859375 27.714844 31.359375 L 27.714844 66.515625 C 27.714844 72.632812 24.367188 76.136719 18.539062 76.136719 C 16.023438 76.179688 13.546875 75.511719 11.402344 74.207031 L 3.253906 69.554688 C 1.242188 68.386719 0.00390625 66.242188 0.0078125 63.925781 L 0.0078125 28.320312 C 0 26 1.238281 23.847656 3.253906 22.683594 L 34.246094 4.871094 C 36.277344 3.765625 38.730469 3.765625 40.757812 4.871094 L 71.746094 22.683594 C 73.757812 23.847656 75 25.988281 75 28.304688 L 75 63.925781 C 74.996094 66.242188 73.757812 68.386719 71.746094 69.554688 L 40.757812 87.367188 C 39.769531 87.9375 38.644531 88.234375 37.503906 88.234375 Z M 37.503906 88.234375 "/>
<path style=" stroke:none;fill-rule:nonzero;fill:rgb(0%,83.137255%,52.54902%);fill-opacity:1;" d="M 31.625 52.007812 C 31.625 51.511719 32.03125 51.105469 32.53125 51.105469 L 36.539062 51.105469 C 36.980469 51.109375 37.359375 51.425781 37.429688 51.863281 C 38.035156 55.925781 39.847656 57.972656 48.039062 57.972656 C 54.566406 57.972656 57.347656 56.5 57.347656 53.050781 C 57.347656 51.066406 56.5625 49.589844 46.414062 48.597656 C 37.933594 47.761719 32.691406 45.894531 32.691406 39.144531 C 32.691406 32.921875 37.960938 29.207031 46.796875 29.207031 C 56.722656 29.207031 61.636719 32.640625 62.261719 40 C 62.28125 40.25 62.195312 40.492188 62.027344 40.675781 C 61.855469 40.859375 61.621094 40.96875 61.371094 40.972656 L 57.335938 40.972656 C 56.917969 40.964844 56.558594 40.675781 56.464844 40.273438 C 55.5 36 53.140625 34.636719 46.800781 34.636719 C 39.671875 34.636719 38.84375 37.105469 38.84375 38.960938 C 38.84375 41.203125 39.824219 41.859375 49.445312 43.125 C 58.96875 44.378906 63.492188 46.152344 63.492188 52.816406 C 63.492188 59.539062 57.863281 63.386719 48.042969 63.386719 C 34.46875 63.40625 31.625 57.207031 31.625 52.007812 Z M 31.625 52.007812 "/>
</g>
</svg>
