<?xml version="1.0" encoding="UTF-8"?>
<svg xmlns="http://www.w3.org/2000/svg" xmlns:xlink="http://www.w3.org/1999/xlink" width="75px" height="75px" viewBox="0 0 75 75" version="1.1">
<g id="surface1">
<path style=" stroke:none;fill-rule:nonzero;fill:rgb(0%,0%,0%);fill-opacity:1;" d="M 73.210938 35.664062 C 74.03125 37.476562 74.554688 39.414062 74.765625 41.390625 C 74.972656 43.367188 74.867188 45.367188 74.441406 47.316406 C 74.023438 49.261719 73.296875 51.128906 72.285156 52.847656 C 71.625 53.996094 70.84375 55.074219 69.941406 56.066406 C 69.050781 57.050781 68.054688 57.941406 66.972656 58.722656 C 65.882812 59.503906 64.722656 60.160156 63.492188 60.699219 C 62.265625 61.230469 60.988281 61.636719 59.675781 61.902344 C 59.0625 63.792969 58.144531 65.582031 56.960938 67.195312 C 55.785156 68.804688 54.355469 70.21875 52.726562 71.382812 C 51.101562 72.554688 49.300781 73.460938 47.390625 74.070312 C 45.480469 74.6875 43.480469 74.992188 41.46875 74.992188 C 40.132812 75 38.792969 74.859375 37.480469 74.59375 C 36.175781 74.320312 34.898438 73.90625 33.675781 73.367188 C 32.449219 72.828125 31.289062 72.15625 30.207031 71.375 C 29.132812 70.59375 28.140625 69.695312 27.253906 68.703125 C 25.28125 69.125 23.257812 69.226562 21.261719 69.023438 C 19.261719 68.8125 17.304688 68.296875 15.464844 67.484375 C 13.632812 66.679688 11.9375 65.582031 10.445312 64.246094 C 8.949219 62.910156 7.679688 61.347656 6.675781 59.628906 C 6.003906 58.480469 5.453125 57.269531 5.035156 56.011719 C 4.617188 54.753906 4.339844 53.457031 4.199219 52.136719 C 4.054688 50.824219 4.0625 49.496094 4.207031 48.175781 C 4.347656 46.859375 4.640625 45.5625 5.058594 44.304688 C 3.714844 42.828125 2.609375 41.148438 1.789062 39.335938 C 0.976562 37.515625 0.445312 35.585938 0.242188 33.609375 C 0.0273438 31.632812 0.140625 29.632812 0.558594 27.683594 C 0.976562 25.738281 1.703125 23.871094 2.714844 22.152344 C 3.375 21.003906 4.15625 19.917969 5.050781 18.933594 C 5.941406 17.949219 6.945312 17.058594 8.027344 16.277344 C 9.109375 15.496094 10.277344 14.832031 11.5 14.300781 C 12.734375 13.761719 14.011719 13.363281 15.324219 13.097656 C 15.9375 11.199219 16.855469 9.417969 18.03125 7.804688 C 19.214844 6.195312 20.644531 4.78125 22.273438 3.609375 C 23.898438 2.445312 25.699219 1.539062 27.609375 0.921875 C 29.519531 0.3125 31.519531 0 33.53125 0.0078125 C 34.867188 0 36.207031 0.132812 37.519531 0.40625 C 38.832031 0.679688 40.109375 1.085938 41.332031 1.625 C 42.558594 2.171875 43.71875 2.835938 44.800781 3.617188 C 45.882812 4.40625 46.875 5.296875 47.761719 6.289062 C 49.726562 5.875 51.75 5.773438 53.746094 5.976562 C 55.746094 6.179688 57.695312 6.703125 59.535156 7.507812 C 61.367188 8.320312 63.0625 9.410156 64.554688 10.746094 C 66.050781 12.074219 67.320312 13.628906 68.324219 15.355469 C 68.996094 16.496094 69.546875 17.707031 69.964844 18.972656 C 70.382812 20.230469 70.667969 21.527344 70.800781 22.847656 C 70.945312 24.167969 70.945312 25.496094 70.792969 26.816406 C 70.652344 28.140625 70.359375 29.4375 69.941406 30.695312 C 71.292969 32.171875 72.390625 33.84375 73.210938 35.664062 Z M 46.902344 69.023438 C 48.621094 68.320312 50.183594 67.28125 51.503906 65.976562 C 52.824219 64.667969 53.871094 63.121094 54.582031 61.410156 C 55.292969 59.707031 55.664062 57.878906 55.664062 56.035156 L 55.664062 38.609375 C 55.660156 38.59375 55.65625 38.574219 55.648438 38.554688 C 55.644531 38.539062 55.636719 38.523438 55.625 38.507812 C 55.617188 38.492188 55.601562 38.480469 55.585938 38.46875 C 55.570312 38.453125 55.554688 38.441406 55.539062 38.4375 L 49.167969 34.796875 L 49.167969 55.847656 C 49.167969 56.058594 49.136719 56.277344 49.078125 56.480469 C 49.023438 56.691406 48.945312 56.886719 48.835938 57.074219 C 48.722656 57.261719 48.597656 57.433594 48.441406 57.582031 C 48.285156 57.734375 48.113281 57.863281 47.925781 57.972656 L 32.835938 66.59375 C 32.710938 66.671875 32.496094 66.78125 32.386719 66.84375 C 33.011719 67.367188 33.691406 67.828125 34.402344 68.234375 C 35.121094 68.640625 35.863281 68.984375 36.636719 69.265625 C 37.410156 69.539062 38.207031 69.75 39.011719 69.890625 C 39.824219 70.03125 40.648438 70.101562 41.46875 70.101562 C 43.332031 70.101562 45.179688 69.734375 46.902344 69.023438 Z M 10.964844 57.191406 C 11.90625 58.792969 13.144531 60.183594 14.621094 61.308594 C 16.105469 62.433594 17.785156 63.253906 19.585938 63.730469 C 21.386719 64.207031 23.265625 64.332031 25.113281 64.089844 C 26.960938 63.847656 28.738281 63.253906 30.359375 62.332031 L 45.613281 53.621094 L 45.652344 53.582031 C 45.664062 53.570312 45.671875 53.554688 45.675781 53.535156 C 45.6875 53.519531 45.695312 53.503906 45.699219 53.488281 L 45.699219 46.140625 L 27.285156 56.683594 C 27.097656 56.792969 26.898438 56.871094 26.695312 56.933594 C 26.480469 56.988281 26.269531 57.011719 26.046875 57.011719 C 25.832031 57.011719 25.621094 56.988281 25.40625 56.933594 C 25.203125 56.871094 24.996094 56.792969 24.808594 56.683594 L 9.71875 48.058594 C 9.582031 47.980469 9.386719 47.863281 9.273438 47.792969 C 9.132812 48.597656 9.0625 49.410156 9.0625 50.222656 C 9.0625 51.035156 9.140625 51.847656 9.28125 52.652344 C 9.425781 53.449219 9.644531 54.238281 9.921875 55.003906 C 10.207031 55.769531 10.554688 56.503906 10.964844 57.207031 Z M 7 24.605469 C 6.070312 26.207031 5.46875 27.972656 5.222656 29.804688 C 4.980469 31.632812 5.105469 33.484375 5.585938 35.273438 C 6.070312 37.054688 6.898438 38.71875 8.035156 40.1875 C 9.171875 41.648438 10.585938 42.875 12.195312 43.796875 L 27.445312 52.519531 C 27.460938 52.523438 27.476562 52.527344 27.5 52.535156 L 27.554688 52.535156 C 27.574219 52.535156 27.59375 52.527344 27.609375 52.519531 C 27.625 52.511719 27.640625 52.503906 27.65625 52.496094 L 34.054688 48.839844 L 15.640625 38.320312 C 15.457031 38.210938 15.285156 38.078125 15.125 37.929688 C 14.972656 37.777344 14.839844 37.605469 14.730469 37.421875 C 14.628906 37.234375 14.542969 37.039062 14.488281 36.828125 C 14.429688 36.625 14.398438 36.414062 14.40625 36.195312 L 14.40625 18.449219 C 13.632812 18.730469 12.882812 19.074219 12.171875 19.480469 C 11.460938 19.894531 10.789062 20.363281 10.160156 20.886719 C 9.535156 21.410156 8.949219 21.988281 8.421875 22.613281 C 7.894531 23.230469 7.425781 23.902344 7.015625 24.605469 Z M 59.375 36.671875 C 59.566406 36.78125 59.738281 36.90625 59.898438 37.0625 C 60.046875 37.210938 60.183594 37.382812 60.292969 37.570312 C 60.394531 37.757812 60.480469 37.960938 60.539062 38.164062 C 60.585938 38.375 60.617188 38.585938 60.609375 38.804688 L 60.609375 56.550781 C 63.144531 55.628906 65.355469 54.011719 66.988281 51.886719 C 68.632812 49.761719 69.617188 47.222656 69.847656 44.5625 C 70.074219 41.90625 69.539062 39.234375 68.292969 36.867188 C 67.042969 34.5 65.140625 32.53125 62.804688 31.203125 L 47.554688 22.480469 C 47.539062 22.476562 47.523438 22.472656 47.5 22.464844 L 47.445312 22.464844 C 47.429688 22.472656 47.410156 22.476562 47.390625 22.480469 C 47.375 22.488281 47.359375 22.496094 47.34375 22.503906 L 40.976562 26.144531 L 59.390625 36.671875 Z M 65.734375 27.214844 L 65.726562 27.214844 L 65.726562 27.222656 Z M 65.726562 27.207031 C 66.183594 24.582031 65.875 21.878906 64.832031 19.417969 C 63.796875 16.957031 62.070312 14.839844 59.859375 13.308594 C 57.648438 11.785156 55.042969 10.910156 52.347656 10.792969 C 49.648438 10.683594 46.980469 11.332031 44.640625 12.660156 L 29.394531 21.371094 C 29.378906 21.382812 29.367188 21.394531 29.355469 21.410156 L 29.324219 21.457031 C 29.316406 21.472656 29.3125 21.492188 29.308594 21.511719 C 29.300781 21.527344 29.300781 21.546875 29.300781 21.566406 L 29.300781 28.851562 L 47.714844 18.324219 C 47.902344 18.214844 48.109375 18.136719 48.3125 18.074219 C 48.527344 18.019531 48.742188 17.996094 48.953125 17.996094 C 49.175781 17.996094 49.386719 18.019531 49.601562 18.074219 C 49.804688 18.136719 50.003906 18.214844 50.191406 18.324219 L 65.28125 26.949219 C 65.417969 27.027344 65.613281 27.136719 65.726562 27.207031 Z M 25.824219 19.144531 C 25.824219 18.933594 25.855469 18.722656 25.914062 18.511719 C 25.96875 18.308594 26.046875 18.105469 26.15625 17.917969 C 26.269531 17.738281 26.394531 17.566406 26.550781 17.410156 C 26.703125 17.261719 26.875 17.128906 27.066406 17.027344 L 42.15625 8.40625 C 42.296875 8.320312 42.496094 8.210938 42.605469 8.15625 C 40.535156 6.445312 38.007812 5.351562 35.332031 5.015625 C 32.65625 4.671875 29.9375 5.09375 27.5 6.226562 C 25.050781 7.359375 22.984375 9.164062 21.539062 11.417969 C 20.09375 13.675781 19.328125 16.285156 19.328125 18.957031 L 19.328125 36.382812 C 19.332031 36.402344 19.335938 36.421875 19.34375 36.4375 C 19.347656 36.453125 19.355469 36.46875 19.367188 36.484375 C 19.375 36.5 19.390625 36.515625 19.40625 36.53125 C 19.417969 36.542969 19.433594 36.550781 19.453125 36.5625 L 25.824219 40.203125 Z M 29.285156 42.171875 L 37.488281 46.859375 L 45.691406 42.171875 L 45.691406 32.804688 L 37.496094 28.113281 L 29.292969 32.804688 Z M 29.285156 42.171875 "/>
</g>
</svg>
