<?xml version="1.0" encoding="UTF-8"?>
<svg xmlns="http://www.w3.org/2000/svg" xmlns:xlink="http://www.w3.org/1999/xlink" width="75px" height="75px" viewBox="0 0 75 74" version="1.1">
<defs>
<linearGradient id="linear0" gradientUnits="userSpaceOnUse" x1="0.12959" y1="0.12039" x2="0.79639" y2="0.78201" gradientTransform="matrix(55.449219,0,0,55.078125,0.0429688,0.0195312)">
<stop offset="0" style="stop-color:rgb(21.960784%,49.411765%,72.156863%);stop-opacity:1;"/>
<stop offset="1" style="stop-color:rgb(21.176471%,41.176471%,58.039216%);stop-opacity:1;"/>
</linearGradient>
<linearGradient id="linear1" gradientUnits="userSpaceOnUse" x1="0.19128" y1="0.20579" x2="0.90742" y2="0.88429" gradientTransform="matrix(55.453125,0,0,55.078125,19.402344,18.667969)">
<stop offset="0" style="stop-color:rgb(100%,87.843137%,32.156863%);stop-opacity:1;"/>
<stop offset="1" style="stop-color:rgb(100%,76.470588%,19.215686%);stop-opacity:1;"/>
</linearGradient>
</defs>
<g id="surface1">
<path style=" stroke:none;fill-rule:nonzero;fill:url(#linear0);" d="M 37.179688 0.0195312 C 18.1875 0.0195312 19.371094 8.179688 19.371094 8.179688 L 19.394531 16.632812 L 37.515625 16.632812 L 37.515625 19.171875 L 12.195312 19.171875 C 12.195312 19.171875 0.0429688 17.804688 0.0429688 36.789062 C 0.0429688 55.773438 10.648438 55.097656 10.648438 55.097656 L 16.980469 55.097656 L 16.980469 46.289062 C 16.980469 46.289062 16.640625 35.78125 27.417969 35.78125 L 45.394531 35.78125 C 45.394531 35.78125 55.492188 35.941406 55.492188 26.113281 L 55.492188 9.859375 C 55.492188 9.859375 57.027344 0.0195312 37.179688 0.0195312 Z M 27.183594 5.707031 C 28.050781 5.703125 28.878906 6.042969 29.492188 6.652344 C 30.101562 7.257812 30.445312 8.078125 30.445312 8.933594 C 30.445312 9.792969 30.101562 10.613281 29.492188 11.21875 C 28.878906 11.824219 28.050781 12.164062 27.183594 12.164062 C 26.320312 12.164062 25.492188 11.824219 24.878906 11.21875 C 24.265625 10.613281 23.925781 9.792969 23.925781 8.933594 C 23.925781 8.078125 24.265625 7.257812 24.878906 6.652344 C 25.492188 6.042969 26.320312 5.703125 27.183594 5.707031 Z M 27.183594 5.707031 "/>
<path style=" stroke:none;fill-rule:nonzero;fill:url(#linear1);" d="M 37.71875 73.746094 C 56.710938 73.746094 55.523438 65.585938 55.523438 65.585938 L 55.503906 57.136719 L 37.378906 57.136719 L 37.378906 54.597656 L 62.703125 54.597656 C 62.703125 54.597656 74.855469 55.960938 74.855469 36.980469 C 74.855469 17.996094 64.246094 18.667969 64.246094 18.667969 L 57.917969 18.667969 L 57.917969 27.476562 C 57.917969 27.476562 58.257812 37.984375 47.476562 37.984375 L 29.503906 37.984375 C 29.503906 37.984375 19.402344 37.824219 19.402344 47.65625 L 19.402344 63.910156 C 19.402344 63.910156 17.871094 73.746094 37.71875 73.746094 Z M 47.710938 68.0625 C 46.847656 68.0625 46.015625 67.722656 45.40625 67.117188 C 44.792969 66.511719 44.449219 65.691406 44.453125 64.832031 C 44.449219 63.976562 44.792969 63.152344 45.40625 62.546875 C 46.015625 61.941406 46.847656 61.601562 47.710938 61.601562 C 48.578125 61.601562 49.40625 61.941406 50.019531 62.546875 C 50.628906 63.152344 50.972656 63.976562 50.972656 64.832031 C 50.972656 65.6875 50.628906 66.511719 50.019531 67.117188 C 49.40625 67.722656 48.578125 68.0625 47.710938 68.0625 Z M 47.710938 68.0625 "/>
</g>
</svg>
