<?xml version="1.0" encoding="UTF-8"?>
<svg xmlns="http://www.w3.org/2000/svg" xmlns:xlink="http://www.w3.org/1999/xlink" width="75px" height="75px" viewBox="0 0 75 56" version="1.1">
<g id="surface1">
<path style=" stroke:none;fill-rule:nonzero;fill:rgb(81.176471%,39.215686%,60.392157%);fill-opacity:1;" d="M 64.539062 32.171875 C 61.917969 32.1875 59.648438 32.8125 57.746094 33.746094 C 57.042969 32.359375 56.335938 31.148438 56.222656 30.246094 C 56.089844 29.195312 55.929688 28.554688 56.089844 27.300781 C 56.25 26.046875 56.984375 24.265625 56.984375 24.121094 C 56.96875 23.988281 56.820312 23.347656 55.3125 23.332031 C 53.804688 23.320312 52.5 23.625 52.355469 24.019531 C 52.207031 24.414062 51.914062 25.316406 51.722656 26.25 C 51.460938 27.621094 48.707031 32.476562 47.140625 35.027344 C 46.625 34.039062 46.1875 33.164062 46.097656 32.460938 C 45.96875 31.414062 45.804688 30.769531 45.96875 29.515625 C 46.128906 28.261719 46.859375 26.484375 46.859375 26.335938 C 46.84375 26.207031 46.699219 25.566406 45.191406 25.550781 C 43.683594 25.535156 42.378906 25.839844 42.230469 26.234375 C 42.085938 26.628906 41.925781 27.5625 41.601562 28.464844 C 41.292969 29.371094 37.632812 37.480469 36.679688 39.59375 C 36.195312 40.671875 35.773438 41.535156 35.464844 42.117188 C 35.15625 42.699219 35.449219 42.160156 35.421875 42.21875 C 35.15625 42.714844 35.007812 42.992188 35.007812 42.992188 L 35.007812 43.007812 C 34.804688 43.371094 34.585938 43.722656 34.480469 43.722656 C 34.410156 43.722656 34.261719 42.742188 34.511719 41.402344 C 35.054688 38.585938 36.371094 34.199219 36.355469 34.039062 C 36.355469 33.964844 36.605469 33.191406 35.507812 32.796875 C 34.4375 32.40625 34.058594 33.0625 33.96875 33.0625 C 33.882812 33.0625 33.808594 33.292969 33.808594 33.292969 C 33.808594 33.292969 34.996094 28.351562 31.539062 28.351562 C 29.371094 28.351562 26.382812 30.699219 24.902344 32.84375 C 23.964844 33.351562 21.972656 34.429688 19.863281 35.582031 C 19.058594 36.019531 18.222656 36.488281 17.429688 36.910156 L 17.269531 36.734375 C 13.082031 32.289062 5.332031 29.136719 5.65625 23.160156 C 5.773438 20.984375 6.535156 15.253906 20.539062 8.3125 C 32.007812 2.625 41.191406 4.183594 42.789062 7.65625 C 45.058594 12.613281 37.882812 21.832031 25.957031 23.160156 C 21.417969 23.667969 19.027344 21.917969 18.429688 21.261719 C 17.796875 20.578125 17.710938 20.546875 17.476562 20.679688 C 17.09375 20.882812 17.328125 21.496094 17.476562 21.859375 C 17.828125 22.777344 19.292969 24.414062 21.78125 25.230469 C 23.964844 25.945312 29.296875 26.335938 35.742188 23.859375 C 42.964844 21.074219 48.605469 13.34375 46.949219 6.882812 C 45.265625 0.304688 34.308594 -1.851562 23.949219 1.808594 C 17.78125 3.996094 11.101562 7.410156 6.296875 11.886719 C 0.585938 17.195312 -0.320312 21.832031 0.0585938 23.757812 C 1.390625 30.625 10.898438 35.101562 14.707031 38.414062 C 14.515625 38.515625 14.339844 38.617188 14.179688 38.703125 C 12.277344 39.636719 5.023438 43.414062 3.207031 47.410156 C 1.15625 51.929688 3.53125 55.183594 5.113281 55.621094 C 10.003906 56.976562 15.015625 54.542969 17.726562 50.53125 C 20.417969 46.519531 20.097656 41.316406 18.851562 38.9375 L 18.808594 38.851562 L 20.300781 37.976562 C 21.269531 37.40625 22.222656 36.882812 23.054688 36.429688 C 22.585938 37.699219 22.25 39.199219 22.074219 41.386719 C 21.871094 43.953125 22.925781 47.277344 24.316406 48.589844 C 24.929688 49.160156 25.664062 49.175781 26.117188 49.175781 C 27.730469 49.175781 28.460938 47.847656 29.265625 46.257812 C 30.265625 44.320312 31.144531 42.074219 31.144531 42.074219 C 31.144531 42.074219 30.042969 48.152344 33.046875 48.152344 C 34.144531 48.152344 35.242188 46.738281 35.742188 46.011719 L 35.742188 46.023438 C 35.742188 46.023438 35.773438 45.980469 35.828125 45.878906 C 35.890625 45.789062 35.949219 45.695312 36.007812 45.601562 L 36.007812 45.574219 C 36.445312 44.816406 37.425781 43.078125 38.890625 40.207031 C 40.78125 36.503906 42.597656 31.863281 42.597656 31.863281 C 42.597656 31.863281 42.773438 33.003906 43.316406 34.867188 C 43.636719 35.976562 44.339844 37.1875 44.882812 38.367188 C 44.441406 38.980469 44.179688 39.332031 44.179688 39.332031 L 44.195312 39.347656 C 43.84375 39.8125 43.445312 40.308594 43.039062 40.804688 C 41.542969 42.582031 39.757812 44.609375 39.523438 45.195312 C 39.242188 45.878906 39.300781 46.390625 39.84375 46.796875 C 40.238281 47.089844 40.941406 47.148438 41.6875 47.089844 C 43.039062 47.003906 43.976562 46.667969 44.445312 46.460938 C 45.175781 46.199219 46.011719 45.804688 46.816406 45.222656 C 48.28125 44.144531 49.175781 42.613281 49.085938 40.570312 C 49.042969 39.449219 48.675781 38.339844 48.222656 37.289062 C 48.355469 37.101562 48.488281 36.910156 48.617188 36.707031 C 50.933594 33.335938 52.71875 29.632812 52.71875 29.632812 C 52.71875 29.632812 52.894531 30.769531 53.4375 32.636719 C 53.714844 33.585938 54.273438 34.621094 54.769531 35.640625 C 52.601562 37.40625 51.242188 39.449219 50.773438 40.789062 C 49.90625 43.269531 50.582031 44.390625 51.855469 44.65625 C 52.425781 44.769531 53.246094 44.507812 53.863281 44.246094 C 54.625 44 55.546875 43.574219 56.398438 42.949219 C 57.859375 41.871094 59.265625 40.367188 59.195312 38.339844 C 59.148438 37.40625 58.902344 36.488281 58.5625 35.613281 C 60.410156 34.855469 62.796875 34.417969 65.828125 34.78125 C 72.347656 35.539062 73.636719 39.59375 73.390625 41.285156 C 73.140625 42.976562 71.777344 43.910156 71.324219 44.203125 C 70.867188 44.480469 70.722656 44.582031 70.765625 44.785156 C 70.824219 45.09375 71.03125 45.078125 71.425781 45.019531 C 71.96875 44.933594 74.851562 43.632812 74.96875 40.511719 C 75.148438 36.503906 71.324219 32.128906 64.539062 32.171875 Z M 14.265625 49.042969 C 12.113281 51.390625 9.082031 52.28125 7.792969 51.523438 C 6.402344 50.722656 6.941406 47.265625 9.59375 44.769531 C 11.207031 43.253906 13.300781 41.855469 14.679688 40.992188 C 14.984375 40.804688 15.453125 40.527344 16.011719 40.191406 C 16.097656 40.132812 16.15625 40.105469 16.15625 40.105469 C 16.257812 40.046875 16.375 39.972656 16.492188 39.898438 C 17.476562 43.457031 16.539062 46.578125 14.265625 49.042969 Z M 30.015625 38.382812 C 29.265625 40.207031 27.6875 44.886719 26.734375 44.625 C 25.914062 44.40625 25.414062 40.863281 26.570312 37.363281 C 27.15625 35.597656 28.402344 33.496094 29.136719 32.679688 C 30.320312 31.367188 31.609375 30.929688 31.933594 31.46875 C 32.3125 32.171875 30.484375 37.246094 30.015625 38.382812 Z M 43.007812 44.566406 C 42.6875 44.726562 42.394531 44.84375 42.261719 44.757812 C 42.15625 44.699219 42.390625 44.480469 42.390625 44.480469 C 42.390625 44.480469 44.019531 42.742188 44.664062 41.941406 C 45.027344 41.476562 45.46875 40.9375 45.9375 40.324219 L 45.9375 40.5 C 45.9375 42.597656 43.914062 43.996094 43.007812 44.566406 Z M 53.027344 42.292969 C 52.792969 42.117188 52.820312 41.578125 53.613281 39.886719 C 53.921875 39.214844 54.625 38.089844 55.839844 37.027344 C 55.984375 37.464844 56.074219 37.886719 56.058594 38.28125 C 56.046875 40.90625 54.171875 41.882812 53.027344 42.292969 Z M 53.027344 42.292969 "/>
</g>
</svg>
