<?xml version="1.0" encoding="UTF-8"?>
<svg xmlns="http://www.w3.org/2000/svg" xmlns:xlink="http://www.w3.org/1999/xlink" width="75px" height="75px" viewBox="0 0 75 44" version="1.1">
<g id="surface1">
<path style=" stroke:none;fill-rule:nonzero;fill:rgb(2.352941%,71.372549%,83.137255%);fill-opacity:1;" d="M 37.5 0 C 27.503906 0 21.257812 4.890625 18.757812 14.667969 C 22.507812 9.777344 26.878906 7.945312 31.878906 9.167969 C 34.730469 9.863281 36.765625 11.886719 39.023438 14.128906 C 42.699219 17.777344 46.953125 22 56.242188 22 C 66.238281 22 72.488281 17.109375 74.984375 7.332031 C 71.238281 12.222656 66.863281 14.054688 61.863281 12.832031 C 59.015625 12.136719 56.976562 10.113281 54.71875 7.871094 C 51.042969 4.222656 46.789062 0 37.5 0 Z M 18.757812 22 C 8.761719 22 2.511719 26.886719 0.015625 36.667969 C 3.761719 31.777344 8.136719 29.945312 13.136719 31.167969 C 15.984375 31.863281 18.023438 33.886719 20.28125 36.128906 C 23.957031 39.777344 28.210938 44 37.5 44 C 47.496094 44 53.742188 39.109375 56.242188 29.332031 C 52.492188 34.222656 48.121094 36.054688 43.121094 34.832031 C 40.269531 34.136719 38.234375 32.113281 35.976562 29.871094 C 32.300781 26.222656 28.046875 22 18.757812 22 Z M 18.757812 22 "/>
</g>
</svg>
