<?xml version="1.0" encoding="UTF-8"?>
<svg xmlns="http://www.w3.org/2000/svg" xmlns:xlink="http://www.w3.org/1999/xlink" width="75px" height="75px" viewBox="0 0 75 80" version="1.1">
<g id="surface1">
<path style=" stroke:none;fill-rule:nonzero;fill:rgb(89.803922%,35.686275%,17.647059%);fill-opacity:1;" d="M 42.855469 12.308594 L 42.855469 24.613281 L 64.28125 36.921875 L 64.28125 24.613281 Z M 0.0078125 24.613281 L 0.0078125 36.921875 L 10.722656 43.074219 L 10.722656 30.769531 Z M 32.144531 30.769531 L 21.429688 36.921875 L 21.429688 73.84375 L 32.144531 80 L 32.144531 55.386719 L 42.855469 61.539062 L 42.855469 49.230469 L 32.144531 43.078125 Z M 32.144531 30.769531 "/>
<path style=" stroke:none;fill-rule:nonzero;fill:rgb(92.941176%,55.686275%,14.117647%);fill-opacity:1;" d="M 42.855469 12.308594 L 10.722656 30.769531 L 10.722656 43.074219 L 32.148438 30.769531 L 32.148438 43.074219 L 42.859375 36.921875 L 42.859375 12.308594 Z M 74.992188 18.460938 L 64.277344 24.613281 L 64.277344 36.921875 L 74.992188 30.769531 Z M 53.570312 43.078125 L 42.855469 49.230469 L 42.855469 61.539062 L 53.570312 55.386719 Z M 42.855469 61.539062 L 32.144531 55.386719 L 32.144531 80 L 42.855469 73.847656 Z M 42.855469 61.539062 "/>
<path style=" stroke:none;fill-rule:nonzero;fill:rgb(97.254902%,74.901961%,23.529412%);fill-opacity:1;" d="M 42.855469 0 L 0.0078125 24.613281 L 10.722656 30.769531 L 42.855469 12.308594 L 64.28125 24.613281 L 74.996094 18.460938 Z M 42.855469 36.921875 L 32.144531 43.074219 L 42.855469 49.230469 L 53.570312 43.074219 Z M 42.855469 36.921875 "/>
</g>
</svg>
